<svg xmlns="http://www.w3.org/2000/svg" xmlns:xlink="http://www.w3.org/1999/xlink" xmlns:inkscape="http://www.inkscape.org/namespaces/inkscape" version="1.1" width="401" height="61" viewBox="0 0 401 61">
<defs>
<path id="font_1_8" d="M.6349945 .6950989C.6349945 .70410159 .6279907 .70410159 .6259918 .70410159 .621994 .70410159 .62098696 .7030945 .60899356 .6880951 .6029968 .6810913 .56199648 .62905886 .5609894 .62805178 .5279999 .6931 .46199037 .70410159 .41999818 .70410159 .29299928 .70410159 .17799378 .5880127 .17799378 .47491456 .17799378 .39985658 .22299195 .3558197 .27198792 .33880616 .2829895 .3347931 .34199525 .31878663 .37199403 .31178285 .4229889 .29776 .43598939 .2937622 .45700074 .27174378 .46099855 .2667389 .48098756 .24371338 .48098756 .19667053 .48098756 .10359192 .394989 .007507324 .29499818 .007507324 .21299744 .007507324 .12199402 .042541505 .12199402 .15463257 .12199402 .17366028 .12599182 .19767761 .1289978 .20768738 .1289978 .21069336 .12998963 .21569824 .12998963 .21769715 .12998963 .22169495 .12799073 .22669983 .11999512 .22669983 .11099243 .22669983 .10998535 .22470093 .10598755 .20768738L.054992677 .0025024415C.054992677 .0015106201 .050994874-.011489868 .050994874-.012496948 .050994874-.021484375 .05899048-.021484375 .06098938-.021484375 .06498718-.021484375 .06599426-.020492554 .07798767-.005493164L.12399292 .05455017C.147995 .01852417 .19999695-.021484375 .29299928-.021484375 .42199708-.021484375 .5399933 .10359192 .5399933 .22869873 .5399933 .2707367 .5299988 .30776979 .49198915 .34480287 .47099305 .36582948 .45298768 .37083436 .36099244 .39485169 .2939911 .4128723 .2849884 .41586305 .2669983 .43188478 .25 .44889833 .23699951 .47291566 .23699951 .50694277 .23699951 .5910187 .32199098 .6770935 .4169922 .6770935 .5149994 .6770935 .5609894 .6170502 .5609894 .5219574 .5609894 .49594117 .55599978 .46891786 .55599978 .4649048 .55599978 .4559021 .56399539 .4559021 .5669861 .4559021 .57598879 .4559021 .57699587 .45890809 .58099368 .47491456L.6349945 .6950989Z"/>
<path id="font_1_1" d="M.56599429 .58187869C.56599429 .6419678 .5149994 .7050781 .42399598 .7050781 .29499818 .7050781 .21299744 .5468292 .18699646 .44267274L.0289917-.18434143C.026992798-.19233704 .032989503-.19433594 .037994386-.19433594 .04499817-.19433594 .049987794-.19334412 .050994874-.18833924L.12098694 .09207153C.1309967 .03617859 .18598938-.009765625 .24499512-.009765625 .3880005-.009765625 .522995 .10205078 .522995 .25076295 .522995 .28868104 .5139923 .32661439 .49299623 .35855104 .48098756 .3775177 .46598817 .39149476 .44999696 .40351869 .5219879 .44166566 .56599429 .50276187 .56599429 .58187869M.3919983 .40452577C.37599183 .39848329 .3600006 .39648438 .34098817 .39648438 .32699586 .39648438 .31399537 .3954773 .29599 .40150453 .30599977 .40853883 .32099916 .41055299 .34199525 .41055299 .3600006 .41055299 .37799073 .40853883 .3919983 .40452577M.5139923 .5908966C.5139923 .5358124 .4869995 .45568849 .42199708 .41859437 .40299989 .42562867 .3769989 .43066407 .35499574 .43066407 .33399964 .43066407 .27398683 .43266297 .27398683 .40049745 .27398683 .3735199 .32899476 .37651063 .34599305 .37651063 .37199403 .37651063 .394989 .38250733 .4189911 .38949586 .45098878 .36354066 .46499635 .3296051 .46499635 .27970887 .46499635 .22181702 .44898988 .1749115 .42999269 .13198853 .39698792 .058135988 .31900025 .010223389 .25 .010223389 .1769867 .010223389 .13899231 .068115238 .13899231 .13598633 .13899231 .1449585 .13899231 .15794373 .14299011 .1729126L.20799256 .43566896C.24099732 .566864 .32499696 .68504336 .42199708 .68504336 .49398805 .68504336 .5139923 .634964 .5139923 .5908966Z"/>
<path id="font_2_1" d="M.32499696-.24298096C.32499696-.23999024 .32499696-.23799134 .30799867-.22097779 .20799256-.11997986 .1519928 .045013429 .1519928 .24900818 .1519928 .44299317 .19898987 .60998538 .31498719 .7279968 .32499696 .7369995 .32499696 .7389984 .32499696 .74198916 .32499696 .74798586 .31999208 .75 .31599427 .75 .30299378 .75 .22099304 .6779938 .17199707 .5799866 .12098694 .47898866 .09799194 .37199403 .09799194 .24900818 .09799194 .16000366 .11199951 .041015626 .1639862-.06599426 .22299195-.18598938 .30499269-.25097657 .31599427-.25097657 .31999208-.25097657 .32499696-.24897766 .32499696-.24298096Z"/>
<path id="font_1_5" d="M.36799623 .6086426C.3769989 .6436157 .3789978 .6536102 .45199586 .6536102 .47399903 .6536102 .48199464 .6536102 .48199464 .6726074 .48199464 .6826172 .47099305 .6826172 .46798707 .6826172 .44999696 .6826172 .42799378 .680603 .4099884 .680603H.2869873C.2669983 .680603 .24398804 .6826172 .22399903 .6826172 .21598816 .6826172 .20498657 .6826172 .20498657 .66360476 .20498657 .6536102 .21299744 .6536102 .23298645 .6536102 .29499818 .6536102 .29499818 .6456146 .29499818 .6346283 .29499818 .6276245 .29299928 .6216278 .29100038 .6126404L.1559906 .07395935C.14698792 .038986207 .14498902 .0289917 .07199097 .0289917 .049987794 .0289917 .040985109 .0289917 .040985109 .009994507 .040985109 0 .050994874 0 .055999757 0 .07398987 0 .09599304 .0019989014 .11399841 .0019989014H.23699951C.25698854 .0019989014 .2789917 0 .29899598 0 .30699159 0 .31900025 0 .31900025 .017990113 .31900025 .0289917 .31298829 .0289917 .29100038 .0289917 .22898865 .0289917 .22898865 .036987306 .22898865 .048980714 .22898865 .050979616 .22898865 .05596924 .23298645 .07196045L.36799623 .6086426Z"/>
<path id="font_2_3" d="M.39898683 .23057556H.6749878C.68899539 .23057556 .70700076 .23057556 .70700076 .24856568 .70700076 .26757813 .6899872 .26757813 .6749878 .26757813H.39898683V.5441437C.39898683 .5581665 .39898683 .5761719 .3809967 .5761719 .3619995 .5761719 .3619995 .5591583 .3619995 .5441437V.26757813H.085998538C.07199097 .26757813 .053985597 .26757813 .053985597 .24957276 .053985597 .23057556 .070999149 .23057556 .085998538 .23057556H.3619995V-.045166017C.3619995-.059158327 .3619995-.07714844 .37998963-.07714844 .39898683-.07714844 .39898683-.060150148 .39898683-.045166017V.23057556Z"/>
<path id="font_1_2" d="M.2599945 .43606568C.13198853 .40509034 .039993287 .27215577 .039993287 .15519715 .039993287 .04824829 .11199951-.01171875 .19198609-.01171875 .30999757-.01171875 .3899994 .15020752 .3899994 .2831421 .3899994 .3731079 .34799195 .42807008 .32299806 .46105958 .28599549 .5080414 .22599793 .5850067 .22599793 .63298037 .22599793 .6499634 .23899842 .6799469 .2829895 .6799469 .31399537 .6799469 .33299256 .6689606 .36299134 .6519623 .37199403 .6459656 .394989 .63298037 .4079895 .63298037 .42900086 .63298037 .44400025 .6539612 .44400025 .6699524 .44400025 .6889496 .42900086 .69195559 .3939972 .6999512 .34700013 .70996096 .33299256 .70996096 .31599427 .70996096 .29899598 .70996096 .20098877 .70996096 .20098877 .60798647 .20098877 .55900576 .22599793 .5020447 .2599945 .43606568M.2709961 .41708375C.30899049 .3381195 .32398988 .308136 .32398988 .24316406 .32398988 .16519165 .28199769 .008270264 .19299317 .008270264 .1539917 .008270264 .09799194 .03425598 .09799194 .12721253 .09799194 .19218445 .1349945 .38110353 .2709961 .41708375Z"/>
<path id="font_1_6" d="M.5339966 .6135864C.5419922 .64360049 .5439911 .6536102 .59298709 .6536102 .60899356 .6536102 .61898806 .6536102 .61898806 .6716156 .61898806 .6826172 .6100006 .6826172 .60598757 .6826172 .58898928 .6826172 .56999209 .680603 .5519867 .680603H.49699403C.45498658 .680603 .41099549 .6826172 .36898805 .6826172 .3600006 .6826172 .34799195 .6826172 .34799195 .6646118 .34799195 .65460208 .35598756 .65460208 .35598756 .6536102H.3809967C.46099855 .6536102 .46099855 .64559939 .46099855 .6306 .46099855 .6295929 .46099855 .6225891 .45700074 .60658267L.34199525 .14942932C.31599427 .047439577 .24899292-.0014953613 .20098877-.0014953613 .16699219-.0014953613 .11898804 .014480591 .10699463 .06742859 .11099243 .06642151 .115997318 .06542969 .11999512 .06542969 .15299988 .06542969 .1789856 .09442139 .1789856 .123428348 .1789856 .13941956 .16899109 .16041565 .13899231 .16041565 .12098694 .16041565 .07899475 .15042115 .07899475 .0854187 .07899475 .022476197 .1309967-.021484375 .20298767-.021484375 .2939911-.021484375 .3919983 .047439577 .41600038 .14242554L.5339966 .6135864Z"/>
<path id="font_2_2" d="M.28199769 .24900818C.28199769 .32499696 .27198792 .44898988 .21598816 .5649872 .15699768 .68499758 .07499695 .75 .06399536 .75 .05999756 .75 .054992677 .74798586 .054992677 .74198916 .054992677 .7389984 .054992677 .7369995 .07199097 .71998599 .17199707 .61898806 .22799683 .45399476 .22799683 .25 .22799683 .056015016 .18099976-.11099243 .06498718-.22898865 .054992677-.23799134 .054992677-.23999024 .054992677-.24298096 .054992677-.24897766 .05999756-.25097657 .06399536-.25097657 .07699585-.25097657 .15899658-.1789856 .20799256-.08099365 .25898744 .021011353 .28199769 .12901306 .28199769 .24900818Z"/>
<path id="font_1_3" d="M.29100038 .22685242C.30599977 .22685242 .32299806 .22685242 .32299806 .24285889 .32299806 .25585938 .31298829 .25585938 .29499818 .25585938H.1329956C.1579895 .34672547 .21699524 .4016571 .30599977 .4016571H.33499146C.35198976 .4016571 .36698915 .4016571 .36698915 .41766358 .36698915 .43066407 .35598756 .43066407 .33799745 .43066407H.3039856C.18099976 .43066407 .04598999 .3327484 .04598999 .17593384 .04598999 .06512451 .12098694-.009765625 .21998596-.009765625 .28399659-.009765625 .34700013 .030197144 .34700013 .04017639 .34700013 .046157838 .34399415 .05215454 .33799745 .05215454 .33499146 .05215454 .33299256 .05116272 .32798768 .047164918 .2899933 .022201539 .25299073 .010223389 .22299195 .010223389 .16999817 .010223389 .11399841 .045166017 .11399841 .14199829 .11399841 .16096497 .115997318 .18692017 .125 .22685242H.29100038Z"/>
<path id="font_1_4" d="M.47499085 .27734376C.47999574 .29734803 .48298646 .3093567 .48298646 .33636476 .48298646 .39639283 .44799806 .44140626 .37199403 .44140626 .2829895 .44140626 .23599243 .37838746 .21798706 .35336305 .21499634 .4104004 .17399597 .44140626 .12998963 .44140626 .100997928 .44140626 .07798767 .42739869 .05899048 .38938905 .040985109 .35336305 .026992798 .29234315 .026992798 .28834535 .026992798 .28434754 .0309906 .27934266 .037994386 .27934266 .04598999 .27934266 .04699707 .28033448 .052993776 .30334474 .067993167 .36238099 .08699036 .42140199 .1269989 .42140199 .1499939 .42140199 .1579895 .4053955 .1579895 .37538148 .1579895 .35336305 .147995 .3143463 .14099121 .28334046L.11299133 .17529297C.10899353 .15628052 .09799194 .11126709 .09298706 .09326172 .085998538 .06724548 .07499695 .020233155 .07499695 .0152282719 .07499695 .0012207031 .085998538-.009765625 .100997928-.009765625 .11299133-.009765625 .1269989-.003768921 .1349945 .011230469 .13699341 .016235352 .1459961 .051239015 .15098572 .071258548L.17298889 .1612854 .20599365 .29335023C.20799256 .29934693 .23298645 .34936524 .269989 .38137818 .29599 .4053955 .32998658 .42140199 .36898805 .42140199 .40899659 .42140199 .4229889 .39138795 .4229889 .35136415 .4229889 .32235719 .4189911 .3063507 .4139862 .28733827L.2979889-.1728363C.29699708-.17784119 .29499818-.18385315 .29499818-.18984986 .29499818-.20484925 .30699159-.21484375 .32199098-.21484375 .33099366-.21484375 .35198976-.21084595 .3600006-.18084717L.47499085 .27734376Z"/>
<path id="font_1_7" d="M.36799623 .61460879C.3769989 .6516113 .3809967 .6536102 .41999818 .6536102H.49198915C.5779877 .6536102 .6419983 .62760928 .6419983 .54959109 .6419983 .49858094 .6159973 .3515625 .4149933 .3515625H.3019867L.36799623 .61460879M.5069885 .33955384C.6309967 .3665619 .7279968 .44657899 .7279968 .5325928 .7279968 .6105957 .6489868 .6826172 .5099945 .6826172H.23899842C.21899414 .6826172 .20999146 .6826172 .20999146 .66360476 .20999146 .6536102 .21699524 .6536102 .23599243 .6536102 .29599 .6536102 .29599 .6456146 .29599 .63461306 .29599 .6325989 .29599 .6266022 .2919922 .6116028L.15699768 .073516849C.147995 .038513185 .1459961 .028518677 .07699585 .028518677 .053985597 .028518677 .04699707 .028518677 .04699707 .009506226 .04699707-.00048828127 .057998659-.00048828127 .06098938-.00048828127 .07899475-.00048828127 .099990848 .0015106201 .11898804 .0015106201H.23699951C.25498963 .0015106201 .27598573-.00048828127 .2939911-.00048828127 .3019867-.00048828127 .31298829-.00048828127 .31298829 .018508912 .31298829 .028518677 .3039856 .028518677 .2889862 .028518677 .22799683 .028518677 .22799683 .036514284 .22799683 .04650879 .22799683 .04751587 .22799683 .054519655 .22999573 .06251526L.29699708 .33155824H.4169922C.5119934 .33155824 .5299988 .2715454 .5299988 .23854065 .5299988 .22354126 .519989 .1845398 .5130005 .15852356 .5019989 .11251831 .49899293 .10151672 .49899293 .08251953 .49899293 .011505127 .5569916-.021484375 .6239929-.021484375 .7049866-.021484375 .73999026 .07751465 .73999026 .09152222 .73999026 .098526 .7350006 .10151672 .72898867 .10151672 .72099307 .10151672 .71899417 .09552002 .71699526 .087524417 .69299319 .01651001 .6519928-.0014953613 .6269989-.0014953613 .60198977-.0014953613 .58599856 .009506226 .58599856 .054519655 .58599856 .07852173 .59799197 .16952515 .598999 .17453003 .60398867 .2115326 .60398867 .2155304 .60398867 .22354126 .60398867 .29655458 .54499819 .32754518 .5069885 .33955384Z"/>
</defs>
<path transform="matrix(1.00003,0,0,-1.00003,2.2955018,58.693284)" stroke-width=".79701" stroke-linecap="butt" stroke-miterlimit="10" stroke-linejoin="miter" fill="none" stroke="#000000" d="M0 0H56.69362"/>
<path transform="matrix(1.00003,0,0,-1.00003,2.2955018,58.693284)" stroke-width=".79701" stroke-linecap="butt" stroke-miterlimit="10" stroke-linejoin="miter" fill="none" stroke="#000000" d="M56.69362 0V56.69362"/>
<path transform="matrix(1.00003,0,0,-1.00003,2.2955018,58.693284)" stroke-width=".79701" stroke-linecap="butt" stroke-miterlimit="10" stroke-linejoin="miter" fill="none" stroke="#000000" d="M56.69362 56.69362H0"/>
<path transform="matrix(1.00003,0,0,-1.00003,2.2955018,58.693284)" stroke-width=".79701" stroke-linecap="butt" stroke-miterlimit="10" stroke-linejoin="miter" fill="none" stroke="#000000" d="M0 56.69362V0"/>
<use data-text="S" xlink:href="#font_1_8" transform="matrix(24.787844,0,0,-24.787844,22.458107,38.814687)"/>
<path transform="matrix(1.00003,0,0,-1.00003,2.2955018,58.693284)" stroke-width=".79701" stroke-linecap="butt" stroke-miterlimit="10" stroke-linejoin="miter" fill="none" stroke="#000000" d="M59.52846 28.3468H143.86153"/>
<path transform="matrix(1.00003,0,0,-1.00003,146.16135,30.345633)" stroke-width=".6376" stroke-linecap="round" stroke-linejoin="round" fill="none" stroke="#000000" d="M-1.55415 2.0722C-1.42464 1.29512 0 .1295 .38852 0 0-.1295-1.42464-1.29512-1.55415-2.0722"/>
<use data-text="&#x03b2;" xlink:href="#font_1_1" transform="matrix(14.346631,0,0,-14.346631,69.544528,19.758114)"/>
<use data-text="S" xlink:href="#font_1_8" transform="matrix(14.346631,0,0,-14.346631,78.26727,19.758114)"/>
<use data-text="(" xlink:href="#font_2_1" transform="matrix(14.346631,0,0,-14.346631,87.74507,19.758114)"/>
<use data-text="I" xlink:href="#font_1_5" transform="matrix(14.346631,0,0,-14.346631,93.20823,19.758114)"/>
<use data-text="+" xlink:href="#font_2_3" transform="matrix(14.346631,0,0,-14.346631,103.71955,19.758114)"/>
<use data-text="&#x03b4;" xlink:href="#font_1_2" transform="matrix(14.346631,0,0,-14.346631,117.83397,19.758114)"/>
<use data-text="J" xlink:href="#font_1_6" transform="matrix(14.346631,0,0,-14.346631,124.57687,19.758114)"/>
<use data-text=")" xlink:href="#font_2_2" transform="matrix(14.346631,0,0,-14.346631,133.68645,19.758114)"/>
<path transform="matrix(1.00003,0,0,-1.00003,2.2955018,58.693284)" stroke-width=".79701" stroke-linecap="butt" stroke-miterlimit="10" stroke-linejoin="miter" fill="none" stroke="#000000" d="M147.40332 0H204.09694"/>
<path transform="matrix(1.00003,0,0,-1.00003,2.2955018,58.693284)" stroke-width=".79701" stroke-linecap="butt" stroke-miterlimit="10" stroke-linejoin="miter" fill="none" stroke="#000000" d="M204.09694 0V56.69362"/>
<path transform="matrix(1.00003,0,0,-1.00003,2.2955018,58.693284)" stroke-width=".79701" stroke-linecap="butt" stroke-miterlimit="10" stroke-linejoin="miter" fill="none" stroke="#000000" d="M204.09694 56.69362H147.40332"/>
<path transform="matrix(1.00003,0,0,-1.00003,2.2955018,58.693284)" stroke-width=".79701" stroke-linecap="butt" stroke-miterlimit="10" stroke-linejoin="miter" fill="none" stroke="#000000" d="M147.40332 56.69362V0"/>
<use data-text="I" xlink:href="#font_1_5" transform="matrix(24.787844,0,0,-24.787844,171.7246,38.814687)"/>
<path transform="matrix(1.00003,0,0,-1.00003,2.2955018,58.693284)" stroke-width=".79701" stroke-linecap="butt" stroke-miterlimit="10" stroke-linejoin="miter" fill="none" stroke="#000000" d="M206.93178 28.3468H240.24051"/>
<path transform="matrix(1.00003,0,0,-1.00003,242.54323,30.345633)" stroke-width=".6376" stroke-linecap="round" stroke-linejoin="round" fill="none" stroke="#000000" d="M-1.55415 2.0722C-1.42464 1.29512 0 .1295 .38852 0 0-.1295-1.42464-1.29512-1.55415-2.0722"/>
<use data-text="&#x03f5;" xlink:href="#font_1_3" transform="matrix(14.346631,0,0,-14.346631,219.74404,21.073155)"/>
<use data-text="I" xlink:href="#font_1_5" transform="matrix(14.346631,0,0,-14.346631,225.41095,21.073155)"/>
<path transform="matrix(1.00003,0,0,-1.00003,2.2955018,58.693284)" stroke-width=".79701" stroke-linecap="butt" stroke-miterlimit="10" stroke-linejoin="miter" fill="none" stroke="#000000" d="M243.78272 0H300.47633"/>
<path transform="matrix(1.00003,0,0,-1.00003,2.2955018,58.693284)" stroke-width=".79701" stroke-linecap="butt" stroke-miterlimit="10" stroke-linejoin="miter" fill="none" stroke="#000000" d="M300.47633 0V56.69362"/>
<path transform="matrix(1.00003,0,0,-1.00003,2.2955018,58.693284)" stroke-width=".79701" stroke-linecap="butt" stroke-miterlimit="10" stroke-linejoin="miter" fill="none" stroke="#000000" d="M300.47633 56.69362H243.78272"/>
<path transform="matrix(1.00003,0,0,-1.00003,2.2955018,58.693284)" stroke-width=".79701" stroke-linecap="butt" stroke-miterlimit="10" stroke-linejoin="miter" fill="none" stroke="#000000" d="M243.78272 56.69362V0"/>
<use data-text="J" xlink:href="#font_1_6" transform="matrix(24.787844,0,0,-24.787844,266.57743,38.814687)"/>
<path transform="matrix(1.00003,0,0,-1.00003,2.2955018,58.693284)" stroke-width=".79701" stroke-linecap="butt" stroke-miterlimit="10" stroke-linejoin="miter" fill="none" stroke="#000000" d="M303.31077 28.3468H336.61949"/>
<path transform="matrix(1.00003,0,0,-1.00003,338.92509,30.345633)" stroke-width=".6376" stroke-linecap="round" stroke-linejoin="round" fill="none" stroke="#000000" d="M-1.55415 2.0722C-1.42464 1.29512 0 .1295 .38852 0 0-.1295-1.42464-1.29512-1.55415-2.0722"/>
<use data-text="&#x03b7;" xlink:href="#font_1_4" transform="matrix(14.346631,0,0,-14.346631,314.35487,19.679112)"/>
<use data-text="J" xlink:href="#font_1_6" transform="matrix(14.346631,0,0,-14.346631,321.7864,19.679112)"/>
<path transform="matrix(1.00003,0,0,-1.00003,2.2955018,58.693284)" stroke-width=".79701" stroke-linecap="butt" stroke-miterlimit="10" stroke-linejoin="miter" fill="none" stroke="#000000" d="M340.1617 0H396.85533"/>
<path transform="matrix(1.00003,0,0,-1.00003,2.2955018,58.693284)" stroke-width=".79701" stroke-linecap="butt" stroke-miterlimit="10" stroke-linejoin="miter" fill="none" stroke="#000000" d="M396.85533 0V56.69362"/>
<path transform="matrix(1.00003,0,0,-1.00003,2.2955018,58.693284)" stroke-width=".79701" stroke-linecap="butt" stroke-miterlimit="10" stroke-linejoin="miter" fill="none" stroke="#000000" d="M396.85533 56.69362H340.1617"/>
<path transform="matrix(1.00003,0,0,-1.00003,2.2955018,58.693284)" stroke-width=".79701" stroke-linecap="butt" stroke-miterlimit="10" stroke-linejoin="miter" fill="none" stroke="#000000" d="M340.1617 56.69362V0"/>
<use data-text="R" xlink:href="#font_1_7" transform="matrix(24.787844,0,0,-24.787844,361.47633,38.814687)"/>
</svg>
