<svg xmlns="http://www.w3.org/2000/svg" xmlns:xlink="http://www.w3.org/1999/xlink" xmlns:inkscape="http://www.inkscape.org/namespaces/inkscape" version="1.1" width="288" height="174" viewBox="0 0 288 174">
<defs>
<path id="font_1_5" d="M.6349945 .6950989C.6349945 .70410159 .6279907 .70410159 .6259918 .70410159 .621994 .70410159 .62098696 .7030945 .60899356 .6880951 .6029968 .6810913 .56199648 .62905886 .5609894 .62805178 .5279999 .6931 .46199037 .70410159 .41999818 .70410159 .29299928 .70410159 .17799378 .5880127 .17799378 .47491456 .17799378 .39985658 .22299195 .3558197 .27198792 .33880616 .2829895 .3347931 .34199525 .31878663 .37199403 .31178285 .4229889 .29776 .43598939 .2937622 .45700074 .27174378 .46099855 .2667389 .48098756 .24371338 .48098756 .19667053 .48098756 .10359192 .394989 .007507324 .29499818 .007507324 .21299744 .007507324 .12199402 .042541505 .12199402 .15463257 .12199402 .17366028 .12599182 .19767761 .1289978 .20768738 .1289978 .21069336 .12998963 .21569824 .12998963 .21769715 .12998963 .22169495 .12799073 .22669983 .11999512 .22669983 .11099243 .22669983 .10998535 .22470093 .10598755 .20768738L.054992677 .0025024415C.054992677 .0015106201 .050994874-.011489868 .050994874-.012496948 .050994874-.021484375 .05899048-.021484375 .06098938-.021484375 .06498718-.021484375 .06599426-.020492554 .07798767-.005493164L.12399292 .05455017C.147995 .01852417 .19999695-.021484375 .29299928-.021484375 .42199708-.021484375 .5399933 .10359192 .5399933 .22869873 .5399933 .2707367 .5299988 .30776979 .49198915 .34480287 .47099305 .36582948 .45298768 .37083436 .36099244 .39485169 .2939911 .4128723 .2849884 .41586305 .2669983 .43188478 .25 .44889833 .23699951 .47291566 .23699951 .50694277 .23699951 .5910187 .32199098 .6770935 .4169922 .6770935 .5149994 .6770935 .5609894 .6170502 .5609894 .5219574 .5609894 .49594117 .55599978 .46891786 .55599978 .4649048 .55599978 .4559021 .56399539 .4559021 .5669861 .4559021 .57598879 .4559021 .57699587 .45890809 .58099368 .47491456L.6349945 .6950989Z"/>
<path id="font_1_6" d="M.61898806 .57159426C.6529999 .6255951 .6839905 .6496124 .7350006 .6536102 .7449951 .65460208 .7529907 .65460208 .7529907 .6726074 .7529907 .6766052 .7509918 .6826172 .74198916 .6826172 .723999 .6826172 .68099978 .680603 .6629944 .680603 .6339874 .680603 .60398867 .6826172 .57598879 .6826172 .56799319 .6826172 .55799868 .6826172 .55799868 .66360476 .55799868 .65460208 .5669861 .6536102 .57099917 .6536102 .60798647 .65060427 .6119995 .6325989 .6119995 .62060549 .6119995 .6056061 .59799197 .5825958 .5970001 .58158877L.2829895 .08352661 .21299744 .62260439C.21299744 .6516113 .2649994 .6536102 .27598573 .6536102 .29100038 .6536102 .2999878 .6536102 .2999878 .6726074 .2999878 .6826172 .2889862 .6826172 .28599549 .6826172 .2689972 .6826172 .24899292 .680603 .23199463 .680603H.17599488C.102996829 .680603 .07299805 .6826172 .07199097 .6826172 .06599426 .6826172 .053985597 .6826172 .053985597 .6646118 .053985597 .6536102 .06098938 .6536102 .07699585 .6536102 .12799073 .6536102 .1309967 .64460757 .13398743 .6195984L.21398926 .0025024415C.21699524-.018493653 .21699524-.021484375 .23098755-.021484375 .24299622-.021484375 .24798584-.018493653 .2579956-.0024871827L.61898806 .57159426Z"/>
<path id="font_1_1" d="M.56599429 .58187869C.56599429 .6419678 .5149994 .7050781 .42399598 .7050781 .29499818 .7050781 .21299744 .5468292 .18699646 .44267274L.0289917-.18434143C.026992798-.19233704 .032989503-.19433594 .037994386-.19433594 .04499817-.19433594 .049987794-.19334412 .050994874-.18833924L.12098694 .09207153C.1309967 .03617859 .18598938-.009765625 .24499512-.009765625 .3880005-.009765625 .522995 .10205078 .522995 .25076295 .522995 .28868104 .5139923 .32661439 .49299623 .35855104 .48098756 .3775177 .46598817 .39149476 .44999696 .40351869 .5219879 .44166566 .56599429 .50276187 .56599429 .58187869M.3919983 .40452577C.37599183 .39848329 .3600006 .39648438 .34098817 .39648438 .32699586 .39648438 .31399537 .3954773 .29599 .40150453 .30599977 .40853883 .32099916 .41055299 .34199525 .41055299 .3600006 .41055299 .37799073 .40853883 .3919983 .40452577M.5139923 .5908966C.5139923 .5358124 .4869995 .45568849 .42199708 .41859437 .40299989 .42562867 .3769989 .43066407 .35499574 .43066407 .33399964 .43066407 .27398683 .43266297 .27398683 .40049745 .27398683 .3735199 .32899476 .37651063 .34599305 .37651063 .37199403 .37651063 .394989 .38250733 .4189911 .38949586 .45098878 .36354066 .46499635 .3296051 .46499635 .27970887 .46499635 .22181702 .44898988 .1749115 .42999269 .13198853 .39698792 .058135988 .31900025 .010223389 .25 .010223389 .1769867 .010223389 .13899231 .068115238 .13899231 .13598633 .13899231 .1449585 .13899231 .15794373 .14299011 .1729126L.20799256 .43566896C.24099732 .566864 .32499696 .68504336 .42199708 .68504336 .49398805 .68504336 .5139923 .634964 .5139923 .5908966Z"/>
<path id="font_1_3" d="M.36799623 .6086426C.3769989 .6436157 .3789978 .6536102 .45199586 .6536102 .47399903 .6536102 .48199464 .6536102 .48199464 .6726074 .48199464 .6826172 .47099305 .6826172 .46798707 .6826172 .44999696 .6826172 .42799378 .680603 .4099884 .680603H.2869873C.2669983 .680603 .24398804 .6826172 .22399903 .6826172 .21598816 .6826172 .20498657 .6826172 .20498657 .66360476 .20498657 .6536102 .21299744 .6536102 .23298645 .6536102 .29499818 .6536102 .29499818 .6456146 .29499818 .6346283 .29499818 .6276245 .29299928 .6216278 .29100038 .6126404L.1559906 .07395935C.14698792 .038986207 .14498902 .0289917 .07199097 .0289917 .049987794 .0289917 .040985109 .0289917 .040985109 .009994507 .040985109 0 .050994874 0 .055999757 0 .07398987 0 .09599304 .0019989014 .11399841 .0019989014H.23699951C.25698854 .0019989014 .2789917 0 .29899598 0 .30699159 0 .31900025 0 .31900025 .017990113 .31900025 .0289917 .31298829 .0289917 .29100038 .0289917 .22898865 .0289917 .22898865 .036987306 .22898865 .048980714 .22898865 .050979616 .22898865 .05596924 .23298645 .07196045L.36799623 .6086426Z"/>
<path id="font_2_1" d="M.66999819 .56359866C.7200012 .63960269 .7579956 .6476135 .7979889 .6496124 .8089905 .65060427 .8129883 .660614 .8129883 .6686096 .8129883 .6716156 .8109894 .6826172 .798996 .6826172 .7869873 .6826172 .79100039 .6796112 .71798709 .6796112 .6539917 .6796112 .6269989 .6826172 .6230011 .6826172 .6179962 .6826172 .6029968 .6826172 .6029968 .66360476 .6029968 .65060427 .6159973 .6496124 .62098696 .6496124 .647995 .6476135 .6609955 .63760378 .6609955 .6195984 .6609955 .6035919 .6519928 .59059146 .6469879 .5825958L.32199098 .09051514 .23899842 .604599C.23799134 .6136017 .23699951 .61860659 .23699951 .6215973 .23699951 .6345978 .2519989 .6496124 .30299378 .6496124 .31498719 .6496124 .32798768 .6496124 .32798768 .6686096 .32798768 .6726074 .32499696 .6826172 .31199647 .6826172 .30299378 .6826172 .2630005 .680603 .25498963 .6796112H.19198609C.101989749 .6796112 .08898926 .6826172 .07998657 .6826172 .07598877 .6826172 .06098938 .6826172 .06098938 .66360476 .06098938 .6496124 .07398987 .6496124 .08898926 .6496124 .13999939 .6496124 .14099121 .64060977 .14498902 .6156006L.24299622 .006515503C.24598694-.0134887699 .24699402-.021484375 .2659912-.021484375 .2829895-.021484375 .2889862-.012496948 .29599-.0014953613L.66999819 .56359866Z"/>
<path id="font_1_2" d="M.37799073 .12226868C.37599183 .17129517 .37399293 .24833679 .33599855 .3383789 .31599427 .38839723 .28199769 .44140626 .20899964 .44140626 .085998538 .44140626 .018997193 .28434754 .018997193 .25834657 .018997193 .24934387 .025985718 .24934387 .0289917 .24934387 .037994386 .24934387 .037994386 .25134278 .042999269 .26434327 .06399536 .32637025 .12799073 .37539674 .19699097 .37539674 .33599855 .37539674 .35598756 .22032166 .35598756 .121276859 .35598756 .058242799 .34899903 .037231447 .34298707 .017227173 .32398988-.044799806 .29100038-.16886902 .29100038-.1968689 .29100038-.20487976 .2939911-.21386719 .3019867-.21386719 .31698609-.21386719 .32598878-.18086243 .33699037-.14085388 .36099244-.05281067 .36698915-.0087890629 .37199403 .031234742 .375 .05493164 .43199159 .21980286 .5109863 .37667848 .5179901 .39266969 .5319977 .41966249 .5319977 .4226532 .5319977 .42366029 .5309906 .43066407 .5219879 .43066407 .519989 .43066407 .5149994 .43066407 .5130005 .426651 .5109863 .4246521 .47599793 .3567047 .44599916 .28875733 .43099977 .25534059 .41099549 .21031189 .37799073 .12226868Z"/>
<path id="font_1_4" d="M.36799623 .61460879C.3769989 .6516113 .3809967 .6536102 .41999818 .6536102H.49198915C.5779877 .6536102 .6419983 .62760928 .6419983 .54959109 .6419983 .49858094 .6159973 .3515625 .4149933 .3515625H.3019867L.36799623 .61460879M.5069885 .33955384C.6309967 .3665619 .7279968 .44657899 .7279968 .5325928 .7279968 .6105957 .6489868 .6826172 .5099945 .6826172H.23899842C.21899414 .6826172 .20999146 .6826172 .20999146 .66360476 .20999146 .6536102 .21699524 .6536102 .23599243 .6536102 .29599 .6536102 .29599 .6456146 .29599 .63461306 .29599 .6325989 .29599 .6266022 .2919922 .6116028L.15699768 .073516849C.147995 .038513185 .1459961 .028518677 .07699585 .028518677 .053985597 .028518677 .04699707 .028518677 .04699707 .009506226 .04699707-.00048828127 .057998659-.00048828127 .06098938-.00048828127 .07899475-.00048828127 .099990848 .0015106201 .11898804 .0015106201H.23699951C.25498963 .0015106201 .27598573-.00048828127 .2939911-.00048828127 .3019867-.00048828127 .31298829-.00048828127 .31298829 .018508912 .31298829 .028518677 .3039856 .028518677 .2889862 .028518677 .22799683 .028518677 .22799683 .036514284 .22799683 .04650879 .22799683 .04751587 .22799683 .054519655 .22999573 .06251526L.29699708 .33155824H.4169922C.5119934 .33155824 .5299988 .2715454 .5299988 .23854065 .5299988 .22354126 .519989 .1845398 .5130005 .15852356 .5019989 .11251831 .49899293 .10151672 .49899293 .08251953 .49899293 .011505127 .5569916-.021484375 .6239929-.021484375 .7049866-.021484375 .73999026 .07751465 .73999026 .09152222 .73999026 .098526 .7350006 .10151672 .72898867 .10151672 .72099307 .10151672 .71899417 .09552002 .71699526 .087524417 .69299319 .01651001 .6519928-.0014953613 .6269989-.0014953613 .60198977-.0014953613 .58599856 .009506226 .58599856 .054519655 .58599856 .07852173 .59799197 .16952515 .598999 .17453003 .60398867 .2115326 .60398867 .2155304 .60398867 .22354126 .60398867 .29655458 .54499819 .32754518 .5069885 .33955384Z"/>
</defs>
<path transform="matrix(1.00006,0,0,-1,2.2949982,172.077)" stroke-width=".79701" stroke-linecap="butt" stroke-miterlimit="10" stroke-linejoin="miter" fill="none" stroke="#000000" d="M0 113.38724H56.69362"/>
<path transform="matrix(1.00006,0,0,-1,2.2949982,172.077)" stroke-width=".79701" stroke-linecap="butt" stroke-miterlimit="10" stroke-linejoin="miter" fill="none" stroke="#000000" d="M56.69362 113.38724V170.08086"/>
<path transform="matrix(1.00006,0,0,-1,2.2949982,172.077)" stroke-width=".79701" stroke-linecap="butt" stroke-miterlimit="10" stroke-linejoin="miter" fill="none" stroke="#000000" d="M56.69362 170.08086H0"/>
<path transform="matrix(1.00006,0,0,-1,2.2949982,172.077)" stroke-width=".79701" stroke-linecap="butt" stroke-miterlimit="10" stroke-linejoin="miter" fill="none" stroke="#000000" d="M0 170.08086V113.38724"/>
<use data-text="S" xlink:href="#font_1_5" transform="matrix(24.788586,0,0,-24.7871,22.458207,38.811998)"/>
<path transform="matrix(1.00006,0,0,-1,2.2949982,172.077)" stroke-width=".79701" stroke-linecap="butt" stroke-miterlimit="10" stroke-linejoin="miter" fill="none" stroke="#000000" d="M0 0H56.69362"/>
<path transform="matrix(1.00006,0,0,-1,2.2949982,172.077)" stroke-width=".79701" stroke-linecap="butt" stroke-miterlimit="10" stroke-linejoin="miter" fill="none" stroke="#000000" d="M56.69362 0V56.69362"/>
<path transform="matrix(1.00006,0,0,-1,2.2949982,172.077)" stroke-width=".79701" stroke-linecap="butt" stroke-miterlimit="10" stroke-linejoin="miter" fill="none" stroke="#000000" d="M56.69362 56.69362H0"/>
<path transform="matrix(1.00006,0,0,-1,2.2949982,172.077)" stroke-width=".79701" stroke-linecap="butt" stroke-miterlimit="10" stroke-linejoin="miter" fill="none" stroke="#000000" d="M0 56.69362V0"/>
<use data-text="V" xlink:href="#font_1_6" transform="matrix(24.788586,0,0,-24.7871,20.871113,152.19899)"/>
<path transform="matrix(1.00006,0,0,-1,2.2949982,172.077)" stroke-width=".79701" stroke-linecap="butt" stroke-miterlimit="10" stroke-linejoin="miter" fill="none" stroke="#000000" d="M59.52846 141.73404 110.009 99.66663"/>
<path transform="matrix(.7682161,.64015,.6401884,-.76817,112.310588,72.410358)" stroke-width=".6376" stroke-linecap="round" stroke-linejoin="round" fill="none" stroke="#000000" d="M-1.55415 2.0722C-1.42464 1.29512 0 .1295 .38852 0 0-.1295-1.42464-1.29512-1.55415-2.0722"/>
<use data-text="&#x03b2;" xlink:href="#font_1_1" transform="matrix(11.955917,0,0,-11.9552,82.374797,39.00099)"/>
<use data-text="S" xlink:href="#font_1_5" transform="matrix(11.955917,0,0,-11.9552,89.644,39.00099)"/>
<use data-text="I" xlink:href="#font_1_3" transform="matrix(11.955917,0,0,-11.9552,97.534908,39.00099)"/>
<path transform="matrix(1.00006,0,0,-1,2.2949982,172.077)" stroke-width=".79701" stroke-linecap="butt" stroke-miterlimit="10" stroke-linejoin="miter" fill="none" stroke="#000000" d="M59.52846 28.3468 110.009 70.4142"/>
<path transform="matrix(.7682161,-.64015,-.6401884,-.76817,112.310588,101.66282)" stroke-width=".6376" stroke-linecap="round" stroke-linejoin="round" fill="none" stroke="#000000" d="M-1.55415 2.0722C-1.42464 1.29512 0 .1295 .38852 0 0-.1295-1.42464-1.29512-1.55415-2.0722"/>
<use data-text="&#x03b2;" xlink:href="#font_1_1" transform="matrix(11.955917,0,0,-11.9552,81.11972,141.04999)"/>
<use data-text="V" xlink:href="#font_2_1" transform="matrix(7.9705779,0,0,-7.9701,87.72912,142.84299)"/>
<use data-text="V" xlink:href="#font_1_6" transform="matrix(11.955917,0,0,-11.9552,95.04055,141.04999)"/>
<use data-text="I" xlink:href="#font_1_3" transform="matrix(11.955917,0,0,-11.9552,104.44986,141.04999)"/>
<path transform="matrix(1.00006,0,0,-1,2.2949982,172.077)" stroke-width=".79701" stroke-linecap="butt" stroke-miterlimit="10" stroke-linejoin="miter" fill="none" stroke="#000000" d="M113.38724 56.69362H170.08086"/>
<path transform="matrix(1.00006,0,0,-1,2.2949982,172.077)" stroke-width=".79701" stroke-linecap="butt" stroke-miterlimit="10" stroke-linejoin="miter" fill="none" stroke="#000000" d="M170.08086 56.69362V113.38724"/>
<path transform="matrix(1.00006,0,0,-1,2.2949982,172.077)" stroke-width=".79701" stroke-linecap="butt" stroke-miterlimit="10" stroke-linejoin="miter" fill="none" stroke="#000000" d="M170.08086 113.38724H113.38724"/>
<path transform="matrix(1.00006,0,0,-1,2.2949982,172.077)" stroke-width=".79701" stroke-linecap="butt" stroke-miterlimit="10" stroke-linejoin="miter" fill="none" stroke="#000000" d="M113.38724 113.38724V56.69362"/>
<use data-text="I" xlink:href="#font_1_3" transform="matrix(24.788586,0,0,-24.7871,137.71012,95.506)"/>
<path transform="matrix(1.00006,0,0,-1,2.2949982,172.077)" stroke-width=".79701" stroke-linecap="butt" stroke-miterlimit="10" stroke-linejoin="miter" fill="none" stroke="#000000" d="M172.9157 85.04042H223.23224"/>
<path transform="matrix(1.00006,0,0,-1,225.54062,87.036579)" stroke-width=".6376" stroke-linecap="round" stroke-linejoin="round" fill="none" stroke="#000000" d="M-1.55415 2.0722C-1.42464 1.29512 0 .1295 .38852 0 0-.1295-1.42464-1.29512-1.55415-2.0722"/>
<use data-text="&#x03b3;" xlink:href="#font_1_2" transform="matrix(11.955917,0,0,-11.9552,194.32152,81.454998)"/>
<use data-text="I" xlink:href="#font_1_3" transform="matrix(11.955917,0,0,-11.9552,201.02878,81.454998)"/>
<path transform="matrix(1.00006,0,0,-1,2.2949982,172.077)" stroke-width=".79701" stroke-linecap="butt" stroke-miterlimit="10" stroke-linejoin="miter" fill="none" stroke="#000000" d="M226.77448 56.69362H283.4681"/>
<path transform="matrix(1.00006,0,0,-1,2.2949982,172.077)" stroke-width=".79701" stroke-linecap="butt" stroke-miterlimit="10" stroke-linejoin="miter" fill="none" stroke="#000000" d="M283.4681 56.69362V113.38724"/>
<path transform="matrix(1.00006,0,0,-1,2.2949982,172.077)" stroke-width=".79701" stroke-linecap="butt" stroke-miterlimit="10" stroke-linejoin="miter" fill="none" stroke="#000000" d="M283.4681 113.38724H226.77448"/>
<path transform="matrix(1.00006,0,0,-1,2.2949982,172.077)" stroke-width=".79701" stroke-linecap="butt" stroke-miterlimit="10" stroke-linejoin="miter" fill="none" stroke="#000000" d="M226.77448 113.38724V56.69362"/>
<use data-text="R" xlink:href="#font_1_4" transform="matrix(24.788586,0,0,-24.7871,248.09174,95.506)"/>
</svg>
