<svg xmlns="http://www.w3.org/2000/svg" xmlns:xlink="http://www.w3.org/1999/xlink" xmlns:inkscape="http://www.inkscape.org/namespaces/inkscape" version="1.1" width="230" height="286" viewBox="0 0 230 286">
<defs>
<path id="font_1_1" d="M.5970001 .60469058C.5970001 .6416626 .59999087 .6516571 .6719971 .6516571H.69200137V.68066409H.040985109V.6516571H.06098938C.1329956 .6516571 .13598633 .6416626 .13598633 .60469058V.07597351C.13598633 .038986207 .1329956 .0289917 .06098938 .0289917H.040985109V0C.06498718 .0019989014 .14698792 .0019989014 .17599488 .0019989014 .20599365 .0019989014 .28799439 .0019989014 .31199647 0V.0289917H.2919922C.21998596 .0289917 .21699524 .038986207 .21699524 .07597351V.6516571H.5159912V.07597351C.5159912 .038986207 .5130005 .0289917 .44099427 .0289917H.42099V0C.44499208 .0019989014 .5269928 .0019989014 .55599978 .0019989014 .58599856 .0019989014 .66799929 .0019989014 .69200137 0V.0289917H.6719971C.59999087 .0289917 .5970001 .038986207 .5970001 .07597351V.60469058Z"/>
<path id="font_2_7" d="M.36799623 .61460879C.3769989 .6516113 .3809967 .6536102 .41999818 .6536102H.49198915C.5779877 .6536102 .6419983 .62760928 .6419983 .54959109 .6419983 .49858094 .6159973 .3515625 .4149933 .3515625H.3019867L.36799623 .61460879M.5069885 .33955384C.6309967 .3665619 .7279968 .44657899 .7279968 .5325928 .7279968 .6105957 .6489868 .6826172 .5099945 .6826172H.23899842C.21899414 .6826172 .20999146 .6826172 .20999146 .66360476 .20999146 .6536102 .21699524 .6536102 .23599243 .6536102 .29599 .6536102 .29599 .6456146 .29599 .63461306 .29599 .6325989 .29599 .6266022 .2919922 .6116028L.15699768 .073516849C.147995 .038513185 .1459961 .028518677 .07699585 .028518677 .053985597 .028518677 .04699707 .028518677 .04699707 .009506226 .04699707-.00048828127 .057998659-.00048828127 .06098938-.00048828127 .07899475-.00048828127 .099990848 .0015106201 .11898804 .0015106201H.23699951C.25498963 .0015106201 .27598573-.00048828127 .2939911-.00048828127 .3019867-.00048828127 .31298829-.00048828127 .31298829 .018508912 .31298829 .028518677 .3039856 .028518677 .2889862 .028518677 .22799683 .028518677 .22799683 .036514284 .22799683 .04650879 .22799683 .04751587 .22799683 .054519655 .22999573 .06251526L.29699708 .33155824H.4169922C.5119934 .33155824 .5299988 .2715454 .5299988 .23854065 .5299988 .22354126 .519989 .1845398 .5130005 .15852356 .5019989 .11251831 .49899293 .10151672 .49899293 .08251953 .49899293 .011505127 .5569916-.021484375 .6239929-.021484375 .7049866-.021484375 .73999026 .07751465 .73999026 .09152222 .73999026 .098526 .7350006 .10151672 .72898867 .10151672 .72099307 .10151672 .71899417 .09552002 .71699526 .087524417 .69299319 .01651001 .6519928-.0014953613 .6269989-.0014953613 .60198977-.0014953613 .58599856 .009506226 .58599856 .054519655 .58599856 .07852173 .59799197 .16952515 .598999 .17453003 .60398867 .2115326 .60398867 .2155304 .60398867 .22354126 .60398867 .29655458 .54499819 .32754518 .5069885 .33955384Z"/>
<path id="font_2_4" d="M.14399719 .022216797C.16899109-.00077819827 .20599365-.009765625 .23999024-.009765625 .3039856-.009765625 .34799195 .033187868 .37098695 .06414795 .3809967 .011230469 .4229889-.009765625 .45799256-.009765625 .48799134-.009765625 .5119934 .008224487 .5299988 .044174196 .54599 .078125 .55999758 .13903809 .55999758 .14303589 .55999758 .14802552 .55599978 .15202332 .5499878 .15202332 .54100039 .15202332 .5399933 .14703369 .5359955 .13204956 .5209961 .073135379 .5019989 .010223389 .46099855 .010223389 .43199159 .010223389 .42999269 .036193849 .42999269 .056167604 .42999269 .07913208 .43899537 .11508179 .44599916 .14503479L.47399903 .2528839C.47799684 .2718506 .4889984 .31678773 .49398805 .33476258 .5 .35873414 .5109863 .40167237 .5109863 .4056549 .5109863 .4206543 .49899293 .43066407 .48399354 .43066407 .47499085 .43066407 .45399476 .426651 .44599916 .39666749L.37599183 .11906433C.37098695 .099105838 .37098695 .09710693 .35798646 .08113098 .34599305 .06414795 .30699159 .010223389 .24398804 .010223389 .18798828 .010223389 .16999817 .05116272 .16999817 .098098758 .16999817 .12727356 .1789856 .16229248 .18299866 .17929077L.22799683 .359375C.23298645 .37838746 .24099732 .4104004 .24099732 .4163971 .24099732 .43240357 .22799683 .44140626 .21499634 .44140626 .20599365 .44140626 .18399048 .43840028 .17599488 .40638734L.0309906-.1728363C.02999878-.17784119 .027999878-.18385315 .027999878-.18984986 .027999878-.20484925 .039993287-.21484375 .054992677-.21484375 .083999637-.21484375 .08999634-.19184876 .09700012-.16383362L.14399719 .022216797Z"/>
<path id="font_2_2" d="M.37799073 .12226868C.37599183 .17129517 .37399293 .24833679 .33599855 .3383789 .31599427 .38839723 .28199769 .44140626 .20899964 .44140626 .085998538 .44140626 .018997193 .28434754 .018997193 .25834657 .018997193 .24934387 .025985718 .24934387 .0289917 .24934387 .037994386 .24934387 .037994386 .25134278 .042999269 .26434327 .06399536 .32637025 .12799073 .37539674 .19699097 .37539674 .33599855 .37539674 .35598756 .22032166 .35598756 .121276859 .35598756 .058242799 .34899903 .037231447 .34298707 .017227173 .32398988-.044799806 .29100038-.16886902 .29100038-.1968689 .29100038-.20487976 .2939911-.21386719 .3019867-.21386719 .31698609-.21386719 .32598878-.18086243 .33699037-.14085388 .36099244-.05281067 .36698915-.0087890629 .37199403 .031234742 .375 .05493164 .43199159 .21980286 .5109863 .37667848 .5179901 .39266969 .5319977 .41966249 .5319977 .4226532 .5319977 .42366029 .5309906 .43066407 .5219879 .43066407 .519989 .43066407 .5149994 .43066407 .5130005 .426651 .5109863 .4246521 .47599793 .3567047 .44599916 .28875733 .43099977 .25534059 .41099549 .21031189 .37799073 .12226868Z"/>
<path id="font_2_6" d="M.36799623 .6086426C.3769989 .6436157 .3789978 .6536102 .45199586 .6536102 .47399903 .6536102 .48199464 .6536102 .48199464 .6726074 .48199464 .6826172 .47099305 .6826172 .46798707 .6826172 .44999696 .6826172 .42799378 .680603 .4099884 .680603H.2869873C.2669983 .680603 .24398804 .6826172 .22399903 .6826172 .21598816 .6826172 .20498657 .6826172 .20498657 .66360476 .20498657 .6536102 .21299744 .6536102 .23298645 .6536102 .29499818 .6536102 .29499818 .6456146 .29499818 .6346283 .29499818 .6276245 .29299928 .6216278 .29100038 .6126404L.1559906 .07395935C.14698792 .038986207 .14498902 .0289917 .07199097 .0289917 .049987794 .0289917 .040985109 .0289917 .040985109 .009994507 .040985109 0 .050994874 0 .055999757 0 .07398987 0 .09599304 .0019989014 .11399841 .0019989014H.23699951C.25698854 .0019989014 .2789917 0 .29899598 0 .30699159 0 .31900025 0 .31900025 .017990113 .31900025 .0289917 .31298829 .0289917 .29100038 .0289917 .22898865 .0289917 .22898865 .036987306 .22898865 .048980714 .22898865 .050979616 .22898865 .05596924 .23298645 .07196045L.36799623 .6086426Z"/>
<path id="font_2_8" d="M.6349945 .6950989C.6349945 .70410159 .6279907 .70410159 .6259918 .70410159 .621994 .70410159 .62098696 .7030945 .60899356 .6880951 .6029968 .6810913 .56199648 .62905886 .5609894 .62805178 .5279999 .6931 .46199037 .70410159 .41999818 .70410159 .29299928 .70410159 .17799378 .5880127 .17799378 .47491456 .17799378 .39985658 .22299195 .3558197 .27198792 .33880616 .2829895 .3347931 .34199525 .31878663 .37199403 .31178285 .4229889 .29776 .43598939 .2937622 .45700074 .27174378 .46099855 .2667389 .48098756 .24371338 .48098756 .19667053 .48098756 .10359192 .394989 .007507324 .29499818 .007507324 .21299744 .007507324 .12199402 .042541505 .12199402 .15463257 .12199402 .17366028 .12599182 .19767761 .1289978 .20768738 .1289978 .21069336 .12998963 .21569824 .12998963 .21769715 .12998963 .22169495 .12799073 .22669983 .11999512 .22669983 .11099243 .22669983 .10998535 .22470093 .10598755 .20768738L.054992677 .0025024415C.054992677 .0015106201 .050994874-.011489868 .050994874-.012496948 .050994874-.021484375 .05899048-.021484375 .06098938-.021484375 .06498718-.021484375 .06599426-.020492554 .07798767-.005493164L.12399292 .05455017C.147995 .01852417 .19999695-.021484375 .29299928-.021484375 .42199708-.021484375 .5399933 .10359192 .5399933 .22869873 .5399933 .2707367 .5299988 .30776979 .49198915 .34480287 .47099305 .36582948 .45298768 .37083436 .36099244 .39485169 .2939911 .4128723 .2849884 .41586305 .2669983 .43188478 .25 .44889833 .23699951 .47291566 .23699951 .50694277 .23699951 .5910187 .32199098 .6770935 .4169922 .6770935 .5149994 .6770935 .5609894 .6170502 .5609894 .5219574 .5609894 .49594117 .55599978 .46891786 .55599978 .4649048 .55599978 .4559021 .56399539 .4559021 .5669861 .4559021 .57598879 .4559021 .57699587 .45890809 .58099368 .47491456L.6349945 .6950989Z"/>
<path id="font_2_1" d="M.56599429 .58187869C.56599429 .6419678 .5149994 .7050781 .42399598 .7050781 .29499818 .7050781 .21299744 .5468292 .18699646 .44267274L.0289917-.18434143C.026992798-.19233704 .032989503-.19433594 .037994386-.19433594 .04499817-.19433594 .049987794-.19334412 .050994874-.18833924L.12098694 .09207153C.1309967 .03617859 .18598938-.009765625 .24499512-.009765625 .3880005-.009765625 .522995 .10205078 .522995 .25076295 .522995 .28868104 .5139923 .32661439 .49299623 .35855104 .48098756 .3775177 .46598817 .39149476 .44999696 .40351869 .5219879 .44166566 .56599429 .50276187 .56599429 .58187869M.3919983 .40452577C.37599183 .39848329 .3600006 .39648438 .34098817 .39648438 .32699586 .39648438 .31399537 .3954773 .29599 .40150453 .30599977 .40853883 .32099916 .41055299 .34199525 .41055299 .3600006 .41055299 .37799073 .40853883 .3919983 .40452577M.5139923 .5908966C.5139923 .5358124 .4869995 .45568849 .42199708 .41859437 .40299989 .42562867 .3769989 .43066407 .35499574 .43066407 .33399964 .43066407 .27398683 .43266297 .27398683 .40049745 .27398683 .3735199 .32899476 .37651063 .34599305 .37651063 .37199403 .37651063 .394989 .38250733 .4189911 .38949586 .45098878 .36354066 .46499635 .3296051 .46499635 .27970887 .46499635 .22181702 .44898988 .1749115 .42999269 .13198853 .39698792 .058135988 .31900025 .010223389 .25 .010223389 .1769867 .010223389 .13899231 .068115238 .13899231 .13598633 .13899231 .1449585 .13899231 .15794373 .14299011 .1729126L.20799256 .43566896C.24099732 .566864 .32499696 .68504336 .42199708 .68504336 .49398805 .68504336 .5139923 .634964 .5139923 .5908966Z"/>
<path id="font_2_5" d="M.69499209 .23190308C.69599917 .23490906 .69898989 .24189759 .69898989 .24589539 .69898989 .25090028 .69499209 .2558899 .68899539 .2558899 .68499758 .2558899 .68299868 .25489808 .6799927 .2518921 .6779938 .25090028 .6779938 .24890137 .6689911 .22891236 .6100006 .088974 .5669861 .0289917 .40699769 .0289917H.26098634C.24699402 .0289917 .24499512 .0289917 .23899842 .02999878 .22799683 .0309906 .22698975 .032989503 .22698975 .040985109 .22698975 .04798889 .22898865 .053985597 .23098755 .06297302L.2999878 .3388672H.39898683C.47698976 .3388672 .48298646 .3218689 .48298646 .29188539 .48298646 .28189088 .48298646 .27288819 .47599793 .24290467 .47399903 .23890686 .47299195 .23490906 .47299195 .23190308 .47299195 .22491455 .47799684 .22190857 .48399354 .22190857 .49299623 .22190857 .49398805 .22891236 .49798585 .24290467L.5549927 .47476197C.5549927 .47976686 .5509949 .48475648 .54499819 .48475648 .5359955 .48475648 .5349884 .48075868 .5309906 .46676637 .5109863 .3898468 .4909973 .3678589 .4019928 .3678589H.30699159L.36898805 .61364749C.37799073 .6486206 .37998963 .6516113 .42099 .6516113H.56399539C.68699648 .6516113 .71199038 .6186371 .71199038 .54270938 .71199038 .5417023 .71199038 .5137329 .70799258 .48075868 .70700076 .47676087 .70599368 .47076417 .70599368 .46876527 .70599368 .4607849 .71099856 .45777894 .71699526 .45777894 .723999 .45777894 .7279968 .46177674 .7299957 .47976686L.7509918 .65460208C.7509918 .65760806 .7529907 .66760256 .7529907 .6696167 .7529907 .680603 .74398806 .680603 .7259979 .680603H.23799134C.21899414 .680603 .20899964 .680603 .20899964 .6626129 .20899964 .6516113 .21598816 .6516113 .23298645 .6516113 .29499818 .6516113 .29499818 .6446228 .29499818 .6336212 .29499818 .6286316 .2939911 .6246338 .29100038 .61364749L.1559906 .07397461C.14698792 .038986207 .14498902 .0289917 .07499695 .0289917 .055999757 .0289917 .04598999 .0289917 .04598999 .010986328 .04598999 0 .051986696 0 .07199097 0H.57398989C.59599307 0 .5970001 .0009918213 .60398867 .016998291L.69499209 .23190308Z"/>
<path id="font_2_3" d="M.21299744 .2498169C.24598694 .26779176 .2829895 .29873658 .30799867 .31970216 .36799623 .37165834 .3899994 .38764955 .42799378 .40264894 .42399598 .39665223 .4229889 .38865663 .4229889 .38165284 .4229889 .35466004 .44599916 .34965516 .45599366 .34965516 .48799134 .34965516 .5059967 .37965394 .5059967 .39865113 .5059967 .4046631 .5039978 .43066407 .46899415 .43066407 .40899659 .43066407 .34999085 .37965394 .30599977 .34266664 .24798584 .29174806 .21899414 .26979066 .17799378 .25680543L.21598816 .41638185C.21598816 .43240357 .20298767 .44140626 .18998719 .44140626 .18099976 .44140626 .15899658 .43840028 .15098572 .40634156L.057998659 .035186769C.054992677 .023208619 .054992677 .021209717 .054992677 .015213013 .054992677 .0012207031 .06599426-.009765625 .08099365-.009765625 .11099243-.009765625 .116989139 .016220093 .12199402 .03718567 .12799073 .058135988 .16899109 .22483826 .17098999 .23083496 .2979889 .22483826 .34098817 .19290161 .34098817 .14398194 .34098817 .13699341 .34098817 .13400269 .33799745 .12301636 .33399964 .10406494 .33399964 .09307861 .33399964 .08708191 .33399964 .027191163 .37298585-.009765625 .42199708-.009765625 .46299745-.009765625 .48599244 .019210816 .5009918 .045166017 .5219879 .08409119 .5349884 .13899231 .5349884 .14299011 .5349884 .14797974 .5309906 .15197754 .5249939 .15197754 .5159912 .15197754 .5149994 .14797974 .5109863 .13200379 .49798585 .08409119 .47599793 .010223389 .4249878 .010223389 .40299989 .010223389 .3919983 .023208619 .3919983 .058135988 .3919983 .07710266 .3959961 .09906006 .3999939 .11404419 .4019928 .12402344 .40499879 .13600159 .40499879 .14697266 .40499879 .23783875 .2789917 .24682617 .21299744 .2498169Z"/>
</defs>
<path transform="matrix(1.00002,0,0,-1.00005,57.988817,227.78064)" stroke-width=".79701" stroke-linecap="butt" stroke-miterlimit="10" stroke-linejoin="miter" fill="none" stroke="#000000" d="M-56.69362 141.73404H-3.5422"/>
<path transform="matrix(1.00002,0,0,-1.00005,54.446546,86.03952)" stroke-width=".6376" stroke-linecap="round" stroke-linejoin="round" fill="none" stroke="#000000" d="M-1.55415 2.0722C-1.42464 1.29512 0 .1295 .38852 0 0-.1295-1.42464-1.29512-1.55415-2.0722"/>
<use data-text="&#x03a0;" xlink:href="#font_1_1" transform="matrix(14.346487,0,0,-14.346916,24.376145,76.767108)"/>
<path transform="matrix(1.00002,0,0,-1.00005,57.988817,227.78064)" stroke-width=".79701" stroke-linecap="butt" stroke-miterlimit="10" stroke-linejoin="miter" fill="none" stroke="#000000" d="M0 0H56.69362"/>
<path transform="matrix(1.00002,0,0,-1.00005,57.988817,227.78064)" stroke-width=".79701" stroke-linecap="butt" stroke-miterlimit="10" stroke-linejoin="miter" fill="none" stroke="#000000" d="M56.69362 0V56.69362"/>
<path transform="matrix(1.00002,0,0,-1.00005,57.988817,227.78064)" stroke-width=".79701" stroke-linecap="butt" stroke-miterlimit="10" stroke-linejoin="miter" fill="none" stroke="#000000" d="M56.69362 56.69362H0"/>
<path transform="matrix(1.00002,0,0,-1.00005,57.988817,227.78064)" stroke-width=".79701" stroke-linecap="butt" stroke-miterlimit="10" stroke-linejoin="miter" fill="none" stroke="#000000" d="M0 56.69362V0"/>
<use data-text="R" xlink:href="#font_2_7" transform="matrix(24.787596,0,0,-24.788338,76.99719,207.90164)"/>
<path transform="matrix(1.00002,0,0,-1.00005,57.988817,227.78064)" stroke-width=".79701" stroke-linecap="butt" stroke-miterlimit="10" stroke-linejoin="miter" fill="none" stroke="#000000" d="M28.3468-2.83484V-55.98625"/>
<path transform="matrix(0,1.00005,1.00002,0,86.33618,283.76969)" stroke-width=".6376" stroke-linecap="round" stroke-linejoin="round" fill="none" stroke="#000000" d="M-1.55415 2.0722C-1.42464 1.29512 0 .1295 .38852 0 0-.1295-1.42464-1.29512-1.55415-2.0722"/>
<use data-text="&#x00b5;" xlink:href="#font_2_4" transform="matrix(14.346487,0,0,-14.346916,90.87848,259.63624)"/>
<use data-text="R" xlink:href="#font_2_7" transform="matrix(14.346487,0,0,-14.346916,99.32855,259.63624)"/>
<path transform="matrix(1.00002,0,0,-1.00005,57.988817,227.78064)" stroke-width=".79701" stroke-linecap="butt" stroke-miterlimit="10" stroke-linejoin="miter" fill="none" stroke="#000000" d="M110.55237 28.3468H60.23582"/>
<path transform="matrix(-1.00002,-0,0,1.00005,118.225849,199.43242)" stroke-width=".6376" stroke-linecap="round" stroke-linejoin="round" fill="none" stroke="#000000" d="M-1.55415 2.0722C-1.42464 1.29512 0 .1295 .38852 0 0-.1295-1.42464-1.29512-1.55415-2.0722"/>
<use data-text="&#x03b3;" xlink:href="#font_2_2" transform="matrix(14.346487,0,0,-14.346916,135.33536,188.76569)"/>
<use data-text="I" xlink:href="#font_2_6" transform="matrix(14.346487,0,0,-14.346916,143.38373,188.76569)"/>
<path transform="matrix(1.00002,0,0,-1.00005,57.988817,227.78064)" stroke-width=".79701" stroke-linecap="butt" stroke-miterlimit="10" stroke-linejoin="miter" fill="none" stroke="#000000" d="M113.38724 0H170.08086"/>
<path transform="matrix(1.00002,0,0,-1.00005,57.988817,227.78064)" stroke-width=".79701" stroke-linecap="butt" stroke-miterlimit="10" stroke-linejoin="miter" fill="none" stroke="#000000" d="M170.08086 0V56.69362"/>
<path transform="matrix(1.00002,0,0,-1.00005,57.988817,227.78064)" stroke-width=".79701" stroke-linecap="butt" stroke-miterlimit="10" stroke-linejoin="miter" fill="none" stroke="#000000" d="M170.08086 56.69362H113.38724"/>
<path transform="matrix(1.00002,0,0,-1.00005,57.988817,227.78064)" stroke-width=".79701" stroke-linecap="butt" stroke-miterlimit="10" stroke-linejoin="miter" fill="none" stroke="#000000" d="M113.38724 56.69362V0"/>
<use data-text="I" xlink:href="#font_2_6" transform="matrix(24.787596,0,0,-24.788338,193.39853,207.90164)"/>
<path transform="matrix(1.00002,0,0,-1.00005,57.988817,227.78064)" stroke-width=".79701" stroke-linecap="butt" stroke-miterlimit="10" stroke-linejoin="miter" fill="none" stroke="#000000" d="M141.73404-2.83484V-55.98625"/>
<path transform="matrix(0,1.00005,1.00002,0,199.7257,283.76969)" stroke-width=".6376" stroke-linecap="round" stroke-linejoin="round" fill="none" stroke="#000000" d="M-1.55415 2.0722C-1.42464 1.29512 0 .1295 .38852 0 0-.1295-1.42464-1.29512-1.55415-2.0722"/>
<use data-text="&#x00b5;" xlink:href="#font_2_4" transform="matrix(14.346487,0,0,-14.346916,206.01178,259.63624)"/>
<use data-text="I" xlink:href="#font_2_6" transform="matrix(14.346487,0,0,-14.346916,214.46186,259.63624)"/>
<path transform="matrix(1.00002,0,0,-1.00005,57.988817,227.78064)" stroke-width=".79701" stroke-linecap="butt" stroke-miterlimit="10" stroke-linejoin="miter" fill="none" stroke="#000000" d="M0 113.38724H56.69362"/>
<path transform="matrix(1.00002,0,0,-1.00005,57.988817,227.78064)" stroke-width=".79701" stroke-linecap="butt" stroke-miterlimit="10" stroke-linejoin="miter" fill="none" stroke="#000000" d="M56.69362 113.38724V170.08086"/>
<path transform="matrix(1.00002,0,0,-1.00005,57.988817,227.78064)" stroke-width=".79701" stroke-linecap="butt" stroke-miterlimit="10" stroke-linejoin="miter" fill="none" stroke="#000000" d="M56.69362 170.08086H0"/>
<path transform="matrix(1.00002,0,0,-1.00005,57.988817,227.78064)" stroke-width=".79701" stroke-linecap="butt" stroke-miterlimit="10" stroke-linejoin="miter" fill="none" stroke="#000000" d="M0 170.08086V113.38724"/>
<use data-text="S" xlink:href="#font_2_8" transform="matrix(24.787596,0,0,-24.788338,78.15122,94.50899)"/>
<path transform="matrix(1.00002,0,0,-1.00005,57.988817,227.78064)" stroke-width=".79701" stroke-linecap="butt" stroke-miterlimit="10" stroke-linejoin="miter" fill="none" stroke="#000000" d="M28.3468 172.9157V226.06711"/>
<path transform="matrix(0,-1.00005,-1.00002,-0,86.33618,1.70224)" stroke-width=".6376" stroke-linecap="round" stroke-linejoin="round" fill="none" stroke="#000000" d="M-1.55415 2.0722C-1.42464 1.29512 0 .1295 .38852 0 0-.1295-1.42464-1.29512-1.55415-2.0722"/>
<use data-text="&#x00b5;" xlink:href="#font_2_4" transform="matrix(14.346487,0,0,-14.346916,91.546489,32.8499)"/>
<use data-text="S" xlink:href="#font_2_8" transform="matrix(14.346487,0,0,-14.346916,99.99656,32.8499)"/>
<path transform="matrix(1.00002,0,0,-1.00005,57.988817,227.78064)" stroke-width=".79701" stroke-linecap="butt" stroke-miterlimit="10" stroke-linejoin="miter" fill="none" stroke="#000000" d="M59.52846 141.73404H109.845"/>
<path transform="matrix(1.00002,0,0,-1.00005,167.83602,86.03952)" stroke-width=".6376" stroke-linecap="round" stroke-linejoin="round" fill="none" stroke="#000000" d="M-1.55415 2.0722C-1.42464 1.29512 0 .1295 .38852 0 0-.1295-1.42464-1.29512-1.55415-2.0722"/>
<use data-text="&#x03b2;" xlink:href="#font_2_1" transform="matrix(14.346487,0,0,-14.346916,130.26926,75.45203)"/>
<use data-text="S" xlink:href="#font_2_8" transform="matrix(14.346487,0,0,-14.346916,138.99195,75.45203)"/>
<use data-text="I" xlink:href="#font_2_6" transform="matrix(14.346487,0,0,-14.346916,148.46063,75.45203)"/>
<path transform="matrix(1.00002,0,0,-1.00005,57.988817,227.78064)" stroke-width=".79701" stroke-linecap="butt" stroke-miterlimit="10" stroke-linejoin="miter" fill="none" stroke="#000000" d="M113.38724 113.38724H170.08086"/>
<path transform="matrix(1.00002,0,0,-1.00005,57.988817,227.78064)" stroke-width=".79701" stroke-linecap="butt" stroke-miterlimit="10" stroke-linejoin="miter" fill="none" stroke="#000000" d="M170.08086 113.38724V170.08086"/>
<path transform="matrix(1.00002,0,0,-1.00005,57.988817,227.78064)" stroke-width=".79701" stroke-linecap="butt" stroke-miterlimit="10" stroke-linejoin="miter" fill="none" stroke="#000000" d="M170.08086 170.08086H113.38724"/>
<path transform="matrix(1.00002,0,0,-1.00005,57.988817,227.78064)" stroke-width=".79701" stroke-linecap="butt" stroke-miterlimit="10" stroke-linejoin="miter" fill="none" stroke="#000000" d="M113.38724 170.08086V113.38724"/>
<use data-text="E" xlink:href="#font_2_5" transform="matrix(24.787596,0,0,-24.788338,190.01546,94.50899)"/>
<path transform="matrix(1.00002,0,0,-1.00005,57.988817,227.78064)" stroke-width=".79701" stroke-linecap="butt" stroke-miterlimit="10" stroke-linejoin="miter" fill="none" stroke="#000000" d="M141.73404 172.9157V226.06711"/>
<path transform="matrix(0,-1.00005,-1.00002,-0,199.7257,1.70224)" stroke-width=".6376" stroke-linecap="round" stroke-linejoin="round" fill="none" stroke="#000000" d="M-1.55415 2.0722C-1.42464 1.29512 0 .1295 .38852 0 0-.1295-1.42464-1.29512-1.55415-2.0722"/>
<use data-text="&#x00b5;" xlink:href="#font_2_4" transform="matrix(14.346487,0,0,-14.346916,204.05374,32.8499)"/>
<use data-text="E" xlink:href="#font_2_5" transform="matrix(14.346487,0,0,-14.346916,212.50382,32.8499)"/>
<path transform="matrix(1.00002,0,0,-1.00005,57.988817,227.78064)" stroke-width=".79701" stroke-linecap="butt" stroke-miterlimit="10" stroke-linejoin="miter" fill="none" stroke="#000000" d="M141.73404 110.55237V60.23582"/>
<path transform="matrix(0,1.00005,1.00002,0,199.7257,167.54181)" stroke-width=".6376" stroke-linecap="round" stroke-linejoin="round" fill="none" stroke="#000000" d="M-1.55415 2.0722C-1.42464 1.29512 0 .1295 .38852 0 0-.1295-1.42464-1.29512-1.55415-2.0722"/>
<use data-text="&#x03ba;" xlink:href="#font_2_3" transform="matrix(14.346487,0,0,-14.346916,204.23575,147.63764)"/>
<use data-text="E" xlink:href="#font_2_5" transform="matrix(14.346487,0,0,-14.346916,212.3128,147.63764)"/>
</svg>
