<svg xmlns="http://www.w3.org/2000/svg" xmlns:xlink="http://www.w3.org/1999/xlink" xmlns:inkscape="http://www.inkscape.org/namespaces/inkscape" version="1.1" width="451" height="182" viewBox="0 0 451 182">
<defs>
<path id="font_1_10" d="M.6349945 .6950989C.6349945 .70410159 .6279907 .70410159 .6259918 .70410159 .621994 .70410159 .62098696 .7030945 .60899356 .6880951 .6029968 .6810913 .56199648 .62905886 .5609894 .62805178 .5279999 .6931 .46199037 .70410159 .41999818 .70410159 .29299928 .70410159 .17799378 .5880127 .17799378 .47491456 .17799378 .39985658 .22299195 .3558197 .27198792 .33880616 .2829895 .3347931 .34199525 .31878663 .37199403 .31178285 .4229889 .29776 .43598939 .2937622 .45700074 .27174378 .46099855 .2667389 .48098756 .24371338 .48098756 .19667053 .48098756 .10359192 .394989 .007507324 .29499818 .007507324 .21299744 .007507324 .12199402 .042541505 .12199402 .15463257 .12199402 .17366028 .12599182 .19767761 .1289978 .20768738 .1289978 .21069336 .12998963 .21569824 .12998963 .21769715 .12998963 .22169495 .12799073 .22669983 .11999512 .22669983 .11099243 .22669983 .10998535 .22470093 .10598755 .20768738L.054992677 .0025024415C.054992677 .0015106201 .050994874-.011489868 .050994874-.012496948 .050994874-.021484375 .05899048-.021484375 .06098938-.021484375 .06498718-.021484375 .06599426-.020492554 .07798767-.005493164L.12399292 .05455017C.147995 .01852417 .19999695-.021484375 .29299928-.021484375 .42199708-.021484375 .5399933 .10359192 .5399933 .22869873 .5399933 .2707367 .5299988 .30776979 .49198915 .34480287 .47099305 .36582948 .45298768 .37083436 .36099244 .39485169 .2939911 .4128723 .2849884 .41586305 .2669983 .43188478 .25 .44889833 .23699951 .47291566 .23699951 .50694277 .23699951 .5910187 .32199098 .6770935 .4169922 .6770935 .5149994 .6770935 .5609894 .6170502 .5609894 .5219574 .5609894 .49594117 .55599978 .46891786 .55599978 .4649048 .55599978 .4559021 .56399539 .4559021 .5669861 .4559021 .57598879 .4559021 .57699587 .45890809 .58099368 .47491456L.6349945 .6950989Z"/>
<path id="font_1_2" d="M.56599429 .58187869C.56599429 .6419678 .5149994 .7050781 .42399598 .7050781 .29499818 .7050781 .21299744 .5468292 .18699646 .44267274L.0289917-.18434143C.026992798-.19233704 .032989503-.19433594 .037994386-.19433594 .04499817-.19433594 .049987794-.19334412 .050994874-.18833924L.12098694 .09207153C.1309967 .03617859 .18598938-.009765625 .24499512-.009765625 .3880005-.009765625 .522995 .10205078 .522995 .25076295 .522995 .28868104 .5139923 .32661439 .49299623 .35855104 .48098756 .3775177 .46598817 .39149476 .44999696 .40351869 .5219879 .44166566 .56599429 .50276187 .56599429 .58187869M.3919983 .40452577C.37599183 .39848329 .3600006 .39648438 .34098817 .39648438 .32699586 .39648438 .31399537 .3954773 .29599 .40150453 .30599977 .40853883 .32099916 .41055299 .34199525 .41055299 .3600006 .41055299 .37799073 .40853883 .3919983 .40452577M.5139923 .5908966C.5139923 .5358124 .4869995 .45568849 .42199708 .41859437 .40299989 .42562867 .3769989 .43066407 .35499574 .43066407 .33399964 .43066407 .27398683 .43266297 .27398683 .40049745 .27398683 .3735199 .32899476 .37651063 .34599305 .37651063 .37199403 .37651063 .394989 .38250733 .4189911 .38949586 .45098878 .36354066 .46499635 .3296051 .46499635 .27970887 .46499635 .22181702 .44898988 .1749115 .42999269 .13198853 .39698792 .058135988 .31900025 .010223389 .25 .010223389 .1769867 .010223389 .13899231 .068115238 .13899231 .13598633 .13899231 .1449585 .13899231 .15794373 .14299011 .1729126L.20799256 .43566896C.24099732 .566864 .32499696 .68504336 .42199708 .68504336 .49398805 .68504336 .5139923 .634964 .5139923 .5908966Z"/>
<path id="font_2_1" d="M.32499696-.24298096C.32499696-.23999024 .32499696-.23799134 .30799867-.22097779 .20799256-.11997986 .1519928 .045013429 .1519928 .24900818 .1519928 .44299317 .19898987 .60998538 .31498719 .7279968 .32499696 .7369995 .32499696 .7389984 .32499696 .74198916 .32499696 .74798586 .31999208 .75 .31599427 .75 .30299378 .75 .22099304 .6779938 .17199707 .5799866 .12098694 .47898866 .09799194 .37199403 .09799194 .24900818 .09799194 .16000366 .11199951 .041015626 .1639862-.06599426 .22299195-.18598938 .30499269-.25097657 .31599427-.25097657 .31999208-.25097657 .32499696-.24897766 .32499696-.24298096Z"/>
<path id="font_1_8" d="M.36799623 .6086426C.3769989 .6436157 .3789978 .6536102 .45199586 .6536102 .47399903 .6536102 .48199464 .6536102 .48199464 .6726074 .48199464 .6826172 .47099305 .6826172 .46798707 .6826172 .44999696 .6826172 .42799378 .680603 .4099884 .680603H.2869873C.2669983 .680603 .24398804 .6826172 .22399903 .6826172 .21598816 .6826172 .20498657 .6826172 .20498657 .66360476 .20498657 .6536102 .21299744 .6536102 .23298645 .6536102 .29499818 .6536102 .29499818 .6456146 .29499818 .6346283 .29499818 .6276245 .29299928 .6216278 .29100038 .6126404L.1559906 .07395935C.14698792 .038986207 .14498902 .0289917 .07199097 .0289917 .049987794 .0289917 .040985109 .0289917 .040985109 .009994507 .040985109 0 .050994874 0 .055999757 0 .07398987 0 .09599304 .0019989014 .11399841 .0019989014H.23699951C.25698854 .0019989014 .2789917 0 .29899598 0 .30699159 0 .31900025 0 .31900025 .017990113 .31900025 .0289917 .31298829 .0289917 .29100038 .0289917 .22898865 .0289917 .22898865 .036987306 .22898865 .048980714 .22898865 .050979616 .22898865 .05596924 .23298645 .07196045L.36799623 .6086426Z"/>
<path id="font_2_3" d="M.39898683 .23057556H.6749878C.68899539 .23057556 .70700076 .23057556 .70700076 .24856568 .70700076 .26757813 .6899872 .26757813 .6749878 .26757813H.39898683V.5441437C.39898683 .5581665 .39898683 .5761719 .3809967 .5761719 .3619995 .5761719 .3619995 .5591583 .3619995 .5441437V.26757813H.085998538C.07199097 .26757813 .053985597 .26757813 .053985597 .24957276 .053985597 .23057556 .070999149 .23057556 .085998538 .23057556H.3619995V-.045166017C.3619995-.059158327 .3619995-.07714844 .37998963-.07714844 .39898683-.07714844 .39898683-.060150148 .39898683-.045166017V.23057556Z"/>
<path id="font_1_3" d="M.2599945 .43606568C.13198853 .40509034 .039993287 .27215577 .039993287 .15519715 .039993287 .04824829 .11199951-.01171875 .19198609-.01171875 .30999757-.01171875 .3899994 .15020752 .3899994 .2831421 .3899994 .3731079 .34799195 .42807008 .32299806 .46105958 .28599549 .5080414 .22599793 .5850067 .22599793 .63298037 .22599793 .6499634 .23899842 .6799469 .2829895 .6799469 .31399537 .6799469 .33299256 .6689606 .36299134 .6519623 .37199403 .6459656 .394989 .63298037 .4079895 .63298037 .42900086 .63298037 .44400025 .6539612 .44400025 .6699524 .44400025 .6889496 .42900086 .69195559 .3939972 .6999512 .34700013 .70996096 .33299256 .70996096 .31599427 .70996096 .29899598 .70996096 .20098877 .70996096 .20098877 .60798647 .20098877 .55900576 .22599793 .5020447 .2599945 .43606568M.2709961 .41708375C.30899049 .3381195 .32398988 .308136 .32398988 .24316406 .32398988 .16519165 .28199769 .008270264 .19299317 .008270264 .1539917 .008270264 .09799194 .03425598 .09799194 .12721253 .09799194 .19218445 .1349945 .38110353 .2709961 .41708375Z"/>
<path id="font_1_6" d="M.16999817 .1111145C.1349945 .05203247 .100997928 .03199768 .052993776 .0289917 .041992189 .027999878 .033996583 .027999878 .033996583 .009994507 .033996583 .0039978029 .038986207 0 .04598999 0 .06399536 0 .10899353 .0019989014 .1269989 .0019989014 .1559906 .0019989014 .18798828 0 .21598816 0 .22200012 0 .23399353 0 .23399353 .018997193 .23399353 .027999878 .22599793 .0289917 .21998596 .0289917 .19699097 .0309906 .17799378 .039001466 .17799378 .06304932 .17799378 .07707214 .18399048 .08808899 .19699097 .11012268L.272995 .23632813H.5279999C.5289917 .22731018 .5289917 .21929932 .5299988 .21028137 .5329895 .18423462 .54499819 .080078128 .54499819 .061050416 .54499819 .0309906 .49398805 .0289917 .47799684 .0289917 .46699525 .0289917 .45599366 .0289917 .45599366 .010986328 .45599366 0 .46499635 0 .47099305 0 .48799134 0 .5079956 .0019989014 .5249939 .0019989014H.58200076C.6429901 .0019989014 .68699648 0 .6879883 0 .69499209 0 .70599368 0 .70599368 .018997193 .70599368 .0289917 .69699099 .0289917 .6819916 .0289917 .6269989 .0289917 .6259918 .038009645 .6230011 .0680542L.56199648 .691864C.55999758 .711853 .55599978 .7138672 .54499819 .7138672 .5349884 .7138672 .5289917 .711853 .519989 .69685366L.16999817 .1111145M.2899933 .26531983 .4909973 .6009674 .5249939 .26531983H.2899933Z"/>
<path id="font_2_2" d="M.28199769 .24900818C.28199769 .32499696 .27198792 .44898988 .21598816 .5649872 .15699768 .68499758 .07499695 .75 .06399536 .75 .05999756 .75 .054992677 .74798586 .054992677 .74198916 .054992677 .7389984 .054992677 .7369995 .07199097 .71998599 .17199707 .61898806 .22799683 .45399476 .22799683 .25 .22799683 .056015016 .18099976-.11099243 .06498718-.22898865 .054992677-.23799134 .054992677-.23999024 .054992677-.24298096 .054992677-.24897766 .05999756-.25097657 .06399536-.25097657 .07699585-.25097657 .15899658-.1789856 .20799256-.08099365 .25898744 .021011353 .28199769 .12901306 .28199769 .24900818Z"/>
<path id="font_1_7" d="M.69499209 .23190308C.69599917 .23490906 .69898989 .24189759 .69898989 .24589539 .69898989 .25090028 .69499209 .2558899 .68899539 .2558899 .68499758 .2558899 .68299868 .25489808 .6799927 .2518921 .6779938 .25090028 .6779938 .24890137 .6689911 .22891236 .6100006 .088974 .5669861 .0289917 .40699769 .0289917H.26098634C.24699402 .0289917 .24499512 .0289917 .23899842 .02999878 .22799683 .0309906 .22698975 .032989503 .22698975 .040985109 .22698975 .04798889 .22898865 .053985597 .23098755 .06297302L.2999878 .3388672H.39898683C.47698976 .3388672 .48298646 .3218689 .48298646 .29188539 .48298646 .28189088 .48298646 .27288819 .47599793 .24290467 .47399903 .23890686 .47299195 .23490906 .47299195 .23190308 .47299195 .22491455 .47799684 .22190857 .48399354 .22190857 .49299623 .22190857 .49398805 .22891236 .49798585 .24290467L.5549927 .47476197C.5549927 .47976686 .5509949 .48475648 .54499819 .48475648 .5359955 .48475648 .5349884 .48075868 .5309906 .46676637 .5109863 .3898468 .4909973 .3678589 .4019928 .3678589H.30699159L.36898805 .61364749C.37799073 .6486206 .37998963 .6516113 .42099 .6516113H.56399539C.68699648 .6516113 .71199038 .6186371 .71199038 .54270938 .71199038 .5417023 .71199038 .5137329 .70799258 .48075868 .70700076 .47676087 .70599368 .47076417 .70599368 .46876527 .70599368 .4607849 .71099856 .45777894 .71699526 .45777894 .723999 .45777894 .7279968 .46177674 .7299957 .47976686L.7509918 .65460208C.7509918 .65760806 .7529907 .66760256 .7529907 .6696167 .7529907 .680603 .74398806 .680603 .7259979 .680603H.23799134C.21899414 .680603 .20899964 .680603 .20899964 .6626129 .20899964 .6516113 .21598816 .6516113 .23298645 .6516113 .29499818 .6516113 .29499818 .6446228 .29499818 .6336212 .29499818 .6286316 .2939911 .6246338 .29100038 .61364749L.1559906 .07397461C.14698792 .038986207 .14498902 .0289917 .07499695 .0289917 .055999757 .0289917 .04598999 .0289917 .04598999 .010986328 .04598999 0 .051986696 0 .07199097 0H.57398989C.59599307 0 .5970001 .0009918213 .60398867 .016998291L.69499209 .23190308Z"/>
<path id="font_1_12" d="M.042999269-.12719727C.035995485-.15731812 .03199768-.16534424-.009002686-.16534424-.021011353-.16534424-.03100586-.16534424-.03100586-.18434143-.03100586-.18634033-.030014039-.19433594-.019012452-.19433594-.006011963-.19433594 .0079956059-.19233704 .020996094-.19233704H.06399536C.084991458-.19233704 .13598633-.19433594 .15699768-.19433594 .16299439-.19433594 .1749878-.19433594 .1749878-.17634583 .1749878-.16534424 .16799927-.16534424 .15098572-.16534424 .10499573-.16534424 .101989749-.1583252 .101989749-.15028382 .101989749-.13824463 .14698792 .034240724 .15299988 .057250978 .1639862 .02923584 .19099427-.009765625 .24299622-.009765625 .35598756-.009765625 .47799684 .13728333 .47799684 .28434754 .47799684 .3763733 .42599488 .44140626 .35099793 .44140626 .2869873 .44140626 .23298645 .37937928 .22200012 .3653717 .21398926 .41539 .1749878 .44140626 .1349945 .44140626 .10598755 .44140626 .08299255 .42739869 .06399536 .38938905 .04598999 .35336305 .03199768 .29234315 .03199768 .28834535 .03199768 .28434754 .035995485 .27934266 .042999269 .27934266 .050994874 .27934266 .051986696 .28033448 .057998659 .30334474 .07299805 .36238099 .09199524 .42140199 .13198853 .42140199 .15499878 .42140199 .16299439 .4053955 .16299439 .37538148 .16299439 .35136415 .1599884 .34136964 .1559906 .32336427L.042999269-.12719727M.21598816 .3123474C.22299195 .34036256 .25099183 .36938478 .2669983 .38337709 .27799989 .39338685 .31098939 .42140199 .34899903 .42140199 .3929901 .42140199 .41299439 .37738038 .41299439 .32536317 .41299439 .27734376 .3849945 .16429138 .3600006 .11227417 .33499146 .058242799 .2889862 .010223389 .24299622 .010223389 .1749878 .010223389 .1639862 .0962677 .1639862 .1002655 .1639862 .103271488 .1659851 .11126709 .16699219 .11627197L.21598816 .3123474Z"/>
<path id="font_1_5" d="M.21299744 .2498169C.24598694 .26779176 .2829895 .29873658 .30799867 .31970216 .36799623 .37165834 .3899994 .38764955 .42799378 .40264894 .42399598 .39665223 .4229889 .38865663 .4229889 .38165284 .4229889 .35466004 .44599916 .34965516 .45599366 .34965516 .48799134 .34965516 .5059967 .37965394 .5059967 .39865113 .5059967 .4046631 .5039978 .43066407 .46899415 .43066407 .40899659 .43066407 .34999085 .37965394 .30599977 .34266664 .24798584 .29174806 .21899414 .26979066 .17799378 .25680543L.21598816 .41638185C.21598816 .43240357 .20298767 .44140626 .18998719 .44140626 .18099976 .44140626 .15899658 .43840028 .15098572 .40634156L.057998659 .035186769C.054992677 .023208619 .054992677 .021209717 .054992677 .015213013 .054992677 .0012207031 .06599426-.009765625 .08099365-.009765625 .11099243-.009765625 .116989139 .016220093 .12199402 .03718567 .12799073 .058135988 .16899109 .22483826 .17098999 .23083496 .2979889 .22483826 .34098817 .19290161 .34098817 .14398194 .34098817 .13699341 .34098817 .13400269 .33799745 .12301636 .33399964 .10406494 .33399964 .09307861 .33399964 .08708191 .33399964 .027191163 .37298585-.009765625 .42199708-.009765625 .46299745-.009765625 .48599244 .019210816 .5009918 .045166017 .5219879 .08409119 .5349884 .13899231 .5349884 .14299011 .5349884 .14797974 .5309906 .15197754 .5249939 .15197754 .5159912 .15197754 .5149994 .14797974 .5109863 .13200379 .49798585 .08409119 .47599793 .010223389 .4249878 .010223389 .40299989 .010223389 .3919983 .023208619 .3919983 .058135988 .3919983 .07710266 .3959961 .09906006 .3999939 .11404419 .4019928 .12402344 .40499879 .13600159 .40499879 .14697266 .40499879 .23783875 .2789917 .24682617 .21299744 .2498169Z"/>
<path id="font_2_4" d="M.28799439 .64105227C.28799439 .664032 .28799439 .66503909 .2679901 .66503909 .24398804 .6380615 .19400025 .6012573 .09098816 .6012573V.5722656C.11399841 .5722656 .1639862 .5722656 .21899414 .59825137V.07701111C.21899414 .041000368 .21598816 .0289917 .12799073 .0289917H.09700012V0C.12399292 .0019989014 .22099304 .0019989014 .2539978 .0019989014 .2869873 .0019989014 .3829956 .0019989014 .4099884 0V.0289917H.3789978C.29100038 .0289917 .28799439 .041000368 .28799439 .07701111V.64105227Z"/>
<path id="font_3_1" d="M.6589966 .23046875C.6759949 .23046875 .69400027 .23046875 .69400027 .25045777 .69400027 .27046205 .6759949 .27046205 .6589966 .27046205H.117996219C.100997928 .27046205 .08299255 .27046205 .08299255 .25045777 .08299255 .23046875 .100997928 .23046875 .117996219 .23046875H.6589966Z"/>
<path id="font_1_11" d="M.44599916 .4016571C.46598817 .4016571 .47399903 .4016571 .47399903 .4206543 .47399903 .43066407 .46598817 .43066407 .44799806 .43066407H.36698915C.38598634 .5338745 .3999939 .60498049 .4079895 .63697817 .4139862 .6609802 .43499757 .6840973 .46099855 .6840973 .48199464 .6840973 .5029907 .67503359 .5130005 .6659851 .47399903 .66197207 .46199037 .63298037 .46199037 .61598208 .46199037 .5959778 .47698976 .5839844 .49598695 .5839844 .5159912 .5839844 .54599 .60098269 .54599 .63897708 .54599 .68107607 .5039978 .70410159 .45999146 .70410159 .4169922 .70410159 .375 .6720276 .35499574 .63298037 .33699037 .5979767 .32699586 .5619354 .3039856 .43066407H.23699951C.21798706 .43066407 .20799256 .43066407 .20799256 .4126587 .20799256 .4016571 .21398926 .4016571 .23399353 .4016571H.2979889C.27999879 .30871583 .23899842 .082839969 .21598816-.024108887 .19898987-.111068729 .18399048-.18411255 .13398743-.18411255 .1309967-.18411255 .101989749-.18411255 .083999637-.16506958 .1349945-.16107178 .1349945-.11706543 .1349945-.11607361 .1349945-.096069339 .11999512-.08407593 .100997928-.08407593 .08099365-.08407593 .050994874-.10107422 .050994874-.1390686 .050994874-.18209839 .09498596-.20410156 .13398743-.20410156 .23599243-.20410156 .27799989-.021102906 .2889862 .028869629 .30699159 .1058197 .35598756 .37167359 .36099244 .4016571H.44599916Z"/>
<path id="font_1_1" d="M.46299745 .25332643C.46299745 .3503723 .4079895 .44140626 .3019867 .44140626 .17098999 .44140626 .039993287 .2983551 .039993287 .15628052 .039993287 .069244388 .09399414-.009765625 .19599915-.009765625 .2579956-.009765625 .33198548 .014221191 .40299989 .07424927 .4169922 .018234253 .44799806-.009765625 .4909973-.009765625 .54499819-.009765625 .57199099 .04624939 .57199099 .059249879 .57199099 .06825256 .5649872 .06825256 .56199648 .06825256 .55400088 .06825256 .5529938 .06524658 .5499878 .057250978 .54100039 .03224182 .5179901 .010223389 .49398805 .010223389 .46299745 .010223389 .46299745 .07424927 .46299745 .13528443 .5649872 .25732423 .58898928 .38337709 .58898928 .38438417 .58898928 .39338685 .58099368 .39338685 .5779877 .39338685 .56900027 .39338685 .56799319 .39038087 .56399539 .3723755 .5509949 .32835389 .5249939 .25032044 .46299745 .16828919V.25332643M.3999939 .0982666C.31199647 .019226075 .23298645 .010223389 .19799805 .010223389 .1269989 .010223389 .10699463 .07325745 .10699463 .120269779 .10699463 .1632843 .1289978 .26533509 .1599884 .32035829 .20098877 .39038087 .25698854 .42140199 .3019867 .42140199 .39898683 .42140199 .39898683 .29434205 .39898683 .21031189 .39898683 .18530274 .397995 .1592865 .397995 .13427735 .397995 .11427307 .39898683 .10926819 .3999939 .0982666Z"/>
<path id="font_1_4" d="M.47499085 .27734376C.47999574 .29734803 .48298646 .3093567 .48298646 .33636476 .48298646 .39639283 .44799806 .44140626 .37199403 .44140626 .2829895 .44140626 .23599243 .37838746 .21798706 .35336305 .21499634 .4104004 .17399597 .44140626 .12998963 .44140626 .100997928 .44140626 .07798767 .42739869 .05899048 .38938905 .040985109 .35336305 .026992798 .29234315 .026992798 .28834535 .026992798 .28434754 .0309906 .27934266 .037994386 .27934266 .04598999 .27934266 .04699707 .28033448 .052993776 .30334474 .067993167 .36238099 .08699036 .42140199 .1269989 .42140199 .1499939 .42140199 .1579895 .4053955 .1579895 .37538148 .1579895 .35336305 .147995 .3143463 .14099121 .28334046L.11299133 .17529297C.10899353 .15628052 .09799194 .11126709 .09298706 .09326172 .085998538 .06724548 .07499695 .020233155 .07499695 .0152282719 .07499695 .0012207031 .085998538-.009765625 .100997928-.009765625 .11299133-.009765625 .1269989-.003768921 .1349945 .011230469 .13699341 .016235352 .1459961 .051239015 .15098572 .071258548L.17298889 .1612854 .20599365 .29335023C.20799256 .29934693 .23298645 .34936524 .269989 .38137818 .29599 .4053955 .32998658 .42140199 .36898805 .42140199 .40899659 .42140199 .4229889 .39138795 .4229889 .35136415 .4229889 .32235719 .4189911 .3063507 .4139862 .28733827L.2979889-.1728363C.29699708-.17784119 .29499818-.18385315 .29499818-.18984986 .29499818-.20484925 .30699159-.21484375 .32199098-.21484375 .33099366-.21484375 .35198976-.21084595 .3600006-.18084717L.47499085 .27734376Z"/>
<path id="font_1_9" d="M.36799623 .61460879C.3769989 .6516113 .3809967 .6536102 .41999818 .6536102H.49198915C.5779877 .6536102 .6419983 .62760928 .6419983 .54959109 .6419983 .49858094 .6159973 .3515625 .4149933 .3515625H.3019867L.36799623 .61460879M.5069885 .33955384C.6309967 .3665619 .7279968 .44657899 .7279968 .5325928 .7279968 .6105957 .6489868 .6826172 .5099945 .6826172H.23899842C.21899414 .6826172 .20999146 .6826172 .20999146 .66360476 .20999146 .6536102 .21699524 .6536102 .23599243 .6536102 .29599 .6536102 .29599 .6456146 .29599 .63461306 .29599 .6325989 .29599 .6266022 .2919922 .6116028L.15699768 .073516849C.147995 .038513185 .1459961 .028518677 .07699585 .028518677 .053985597 .028518677 .04699707 .028518677 .04699707 .009506226 .04699707-.00048828127 .057998659-.00048828127 .06098938-.00048828127 .07899475-.00048828127 .099990848 .0015106201 .11898804 .0015106201H.23699951C.25498963 .0015106201 .27598573-.00048828127 .2939911-.00048828127 .3019867-.00048828127 .31298829-.00048828127 .31298829 .018508912 .31298829 .028518677 .3039856 .028518677 .2889862 .028518677 .22799683 .028518677 .22799683 .036514284 .22799683 .04650879 .22799683 .04751587 .22799683 .054519655 .22999573 .06251526L.29699708 .33155824H.4169922C.5119934 .33155824 .5299988 .2715454 .5299988 .23854065 .5299988 .22354126 .519989 .1845398 .5130005 .15852356 .5019989 .11251831 .49899293 .10151672 .49899293 .08251953 .49899293 .011505127 .5569916-.021484375 .6239929-.021484375 .7049866-.021484375 .73999026 .07751465 .73999026 .09152222 .73999026 .098526 .7350006 .10151672 .72898867 .10151672 .72099307 .10151672 .71899417 .09552002 .71699526 .087524417 .69299319 .01651001 .6519928-.0014953613 .6269989-.0014953613 .60198977-.0014953613 .58599856 .009506226 .58599856 .054519655 .58599856 .07852173 .59799197 .16952515 .598999 .17453003 .60398867 .2115326 .60398867 .2155304 .60398867 .22354126 .60398867 .29655458 .54499819 .32754518 .5069885 .33955384Z"/>
</defs>
<path transform="matrix(1.00006,0,0,-1.00006,2.2949982,208.17078)" stroke-width=".79701" stroke-linecap="butt" stroke-miterlimit="10" stroke-linejoin="miter" fill="none" stroke="#000000" d="M0 85.04042H56.69362"/>
<path transform="matrix(1.00006,0,0,-1.00006,2.2949982,208.17078)" stroke-width=".79701" stroke-linecap="butt" stroke-miterlimit="10" stroke-linejoin="miter" fill="none" stroke="#000000" d="M56.69362 85.04042V141.73404"/>
<path transform="matrix(1.00006,0,0,-1.00006,2.2949982,208.17078)" stroke-width=".79701" stroke-linecap="butt" stroke-miterlimit="10" stroke-linejoin="miter" fill="none" stroke="#000000" d="M56.69362 141.73404H0"/>
<path transform="matrix(1.00006,0,0,-1.00006,2.2949982,208.17078)" stroke-width=".79701" stroke-linecap="butt" stroke-miterlimit="10" stroke-linejoin="miter" fill="none" stroke="#000000" d="M0 141.73404V85.04042"/>
<use data-text="S" xlink:href="#font_1_10" transform="matrix(24.788586,0,0,-24.788586,22.458207,103.24648)"/>
<path transform="matrix(1.00006,0,0,-1.00006,2.2949982,208.17078)" stroke-width=".79701" stroke-linecap="butt" stroke-miterlimit="10" stroke-linejoin="miter" fill="none" stroke="#000000" d="M59.52846 113.38724H131.1051"/>
<path transform="matrix(1.00006,0,0,-1.00006,133.40796,94.77674)" stroke-width=".6376" stroke-linecap="round" stroke-linejoin="round" fill="none" stroke="#000000" d="M-1.55415 2.0722C-1.42464 1.29512 0 .1295 .38852 0 0-.1295-1.42464-1.29512-1.55415-2.0722"/>
<use data-text="&#x03b2;" xlink:href="#font_1_2" transform="matrix(11.955917,0,0,-11.955917,71.608158,86.426479)"/>
<use data-text="(" xlink:href="#font_2_1" transform="matrix(11.955917,0,0,-11.955917,78.879589,86.426479)"/>
<use data-text="I" xlink:href="#font_1_8" transform="matrix(11.955917,0,0,-11.955917,83.43286,86.426479)"/>
<use data-text="+" xlink:href="#font_2_3" transform="matrix(11.955917,0,0,-11.955917,92.19238,86.426479)"/>
<use data-text="&#x03b4;" xlink:href="#font_1_3" transform="matrix(11.955917,0,0,-11.955917,103.95509,86.426479)"/>
<use data-text="A" xlink:href="#font_1_6" transform="matrix(11.955917,0,0,-11.955917,109.57438,86.426479)"/>
<use data-text=")" xlink:href="#font_2_2" transform="matrix(11.955917,0,0,-11.955917,118.36396,86.426479)"/>
<path transform="matrix(1.00006,0,0,-1.00006,2.2949982,208.17078)" stroke-width=".79701" stroke-linecap="butt" stroke-miterlimit="10" stroke-linejoin="miter" fill="none" stroke="#000000" d="M134.64734 85.04042H191.34096"/>
<path transform="matrix(1.00006,0,0,-1.00006,2.2949982,208.17078)" stroke-width=".79701" stroke-linecap="butt" stroke-miterlimit="10" stroke-linejoin="miter" fill="none" stroke="#000000" d="M191.34096 85.04042V141.73404"/>
<path transform="matrix(1.00006,0,0,-1.00006,2.2949982,208.17078)" stroke-width=".79701" stroke-linecap="butt" stroke-miterlimit="10" stroke-linejoin="miter" fill="none" stroke="#000000" d="M191.34096 141.73404H134.64734"/>
<path transform="matrix(1.00006,0,0,-1.00006,2.2949982,208.17078)" stroke-width=".79701" stroke-linecap="butt" stroke-miterlimit="10" stroke-linejoin="miter" fill="none" stroke="#000000" d="M134.64734 141.73404V85.04042"/>
<use data-text="E" xlink:href="#font_1_7" transform="matrix(24.788586,0,0,-24.788586,155.58818,103.24648)"/>
<path transform="matrix(1.00006,0,0,-1.00006,2.2949982,208.17078)" stroke-width=".79701" stroke-linecap="butt" stroke-miterlimit="10" stroke-linejoin="miter" fill="none" stroke="#000000" d="M194.17581 133.2299 258.7574 169.73282"/>
<path transform="matrix(.8705622,-.4920595,-.4920595,-.8705622,261.06788,38.427797)" stroke-width=".6376" stroke-linecap="round" stroke-linejoin="round" fill="none" stroke="#000000" d="M-1.55415 2.0722C-1.42464 1.29512 0 .1295 .38852 0 0-.1295-1.42464-1.29512-1.55415-2.0722"/>
<use data-text="p" xlink:href="#font_1_12" transform="matrix(11.955917,0,0,-11.955917,211.00551,50.924348)"/>
<use data-text="&#x03ba;" xlink:href="#font_1_5" transform="matrix(11.955917,0,0,-11.955917,216.87586,50.924348)"/>
<use data-text="E" xlink:href="#font_1_7" transform="matrix(11.955917,0,0,-11.955917,223.60706,50.924348)"/>
<path transform="matrix(1.00006,0,0,-1.00006,2.2949982,208.17078)" stroke-width=".79701" stroke-linecap="butt" stroke-miterlimit="10" stroke-linejoin="miter" fill="none" stroke="#000000" d="M194.17581 93.54454 258.7574 57.04164"/>
<path transform="matrix(.8705622,.4920595,.4920595,-.8705622,261.06788,151.1257)" stroke-width=".6376" stroke-linecap="round" stroke-linejoin="round" fill="none" stroke="#000000" d="M-1.55415 2.0722C-1.42464 1.29512 0 .1295 .38852 0 0-.1295-1.42464-1.29512-1.55415-2.0722"/>
<use data-text="(" xlink:href="#font_2_1" transform="matrix(11.955917,0,0,-11.955917,194.80153,157.29773)"/>
<use data-text="1" xlink:href="#font_2_4" transform="matrix(11.955917,0,0,-11.955917,199.34477,157.29773)"/>
<use data-text="&#x2212;" xlink:href="#font_3_1" transform="matrix(11.955917,0,0,-11.955917,207.8643,157.29773)"/>
<use data-text="p" xlink:href="#font_1_12" transform="matrix(11.955917,0,0,-11.955917,219.82003,157.29773)"/>
<use data-text=")" xlink:href="#font_2_2" transform="matrix(11.955917,0,0,-11.955917,225.69538,157.29773)"/>
<use data-text="&#x03ba;" xlink:href="#font_1_5" transform="matrix(11.955917,0,0,-11.955917,230.24866,157.29773)"/>
<use data-text="E" xlink:href="#font_1_7" transform="matrix(11.955917,0,0,-11.955917,236.97983,157.29773)"/>
<path transform="matrix(1.00006,0,0,-1.00006,2.2949982,208.17078)" stroke-width=".79701" stroke-linecap="butt" stroke-miterlimit="10" stroke-linejoin="miter" fill="none" stroke="#000000" d="M262.20799 141.73404H318.9016"/>
<path transform="matrix(1.00006,0,0,-1.00006,2.2949982,208.17078)" stroke-width=".79701" stroke-linecap="butt" stroke-miterlimit="10" stroke-linejoin="miter" fill="none" stroke="#000000" d="M318.9016 141.73404V198.42766"/>
<path transform="matrix(1.00006,0,0,-1.00006,2.2949982,208.17078)" stroke-width=".79701" stroke-linecap="butt" stroke-miterlimit="10" stroke-linejoin="miter" fill="none" stroke="#000000" d="M318.9016 198.42766H262.20799"/>
<path transform="matrix(1.00006,0,0,-1.00006,2.2949982,208.17078)" stroke-width=".79701" stroke-linecap="butt" stroke-miterlimit="10" stroke-linejoin="miter" fill="none" stroke="#000000" d="M262.20799 198.42766V141.73404"/>
<use data-text="I" xlink:href="#font_1_8" transform="matrix(24.788586,0,0,-24.788586,286.54,46.549089)"/>
<path transform="matrix(1.00006,0,0,-1.00006,2.2949982,208.17078)" stroke-width=".79701" stroke-linecap="butt" stroke-miterlimit="10" stroke-linejoin="miter" fill="none" stroke="#000000" d="M321.73646 189.92353H410.32139"/>
<path transform="matrix(1.00006,0,0,-1.00006,412.641,18.23587)" stroke-width=".6376" stroke-linecap="round" stroke-linejoin="round" fill="none" stroke="#000000" d="M-1.55415 2.0722C-1.42464 1.29512 0 .1295 .38852 0 0-.1295-1.42464-1.29512-1.55415-2.0722"/>
<use data-text="(" xlink:href="#font_2_1" transform="matrix(11.955917,0,0,-11.955917,340.03425,9.884888)"/>
<use data-text="1" xlink:href="#font_2_4" transform="matrix(11.955917,0,0,-11.955917,344.57749,9.884888)"/>
<use data-text="&#x2212;" xlink:href="#font_3_1" transform="matrix(11.955917,0,0,-11.955917,353.09703,9.884888)"/>
<use data-text="f" xlink:href="#font_1_11" transform="matrix(11.955917,0,0,-11.955917,365.05274,9.884888)"/>
<use data-text=")" xlink:href="#font_2_2" transform="matrix(11.955917,0,0,-11.955917,372.10017,9.884888)"/>
<use data-text="&#x03b1;" xlink:href="#font_1_1" transform="matrix(11.955917,0,0,-11.955917,376.65245,9.884888)"/>
<use data-text="I" xlink:href="#font_1_8" transform="matrix(11.955917,0,0,-11.955917,384.16078,9.884888)"/>
<path transform="matrix(1.00006,0,0,-1.00006,2.2949982,208.17078)" stroke-width=".79701" stroke-linecap="butt" stroke-miterlimit="10" stroke-linejoin="miter" fill="none" stroke="#000000" d="M321.73646 170.08086 386.31803 133.57794"/>
<path transform="matrix(.8705622,.4920595,.4920595,-.8705622,388.63618,74.58481)" stroke-width=".6376" stroke-linecap="round" stroke-linejoin="round" fill="none" stroke="#000000" d="M-1.55415 2.0722C-1.42464 1.29512 0 .1295 .38852 0 0-.1295-1.42464-1.29512-1.55415-2.0722"/>
<use data-text="f" xlink:href="#font_1_11" transform="matrix(11.955917,0,0,-11.955917,351.98497,46.7381)"/>
<use data-text="&#x03b1;" xlink:href="#font_1_1" transform="matrix(11.955917,0,0,-11.955917,359.01506,46.7381)"/>
<use data-text="I" xlink:href="#font_1_8" transform="matrix(11.955917,0,0,-11.955917,366.5353,46.7381)"/>
<path transform="matrix(1.00006,0,0,-1.00006,2.2949982,208.17078)" stroke-width=".79701" stroke-linecap="butt" stroke-miterlimit="10" stroke-linejoin="miter" fill="none" stroke="#000000" d="M262.20799 28.3468H318.9016"/>
<path transform="matrix(1.00006,0,0,-1.00006,2.2949982,208.17078)" stroke-width=".79701" stroke-linecap="butt" stroke-miterlimit="10" stroke-linejoin="miter" fill="none" stroke="#000000" d="M318.9016 28.3468V85.04042"/>
<path transform="matrix(1.00006,0,0,-1.00006,2.2949982,208.17078)" stroke-width=".79701" stroke-linecap="butt" stroke-miterlimit="10" stroke-linejoin="miter" fill="none" stroke="#000000" d="M318.9016 85.04042H262.20799"/>
<path transform="matrix(1.00006,0,0,-1.00006,2.2949982,208.17078)" stroke-width=".79701" stroke-linecap="butt" stroke-miterlimit="10" stroke-linejoin="miter" fill="none" stroke="#000000" d="M262.20799 85.04042V28.3468"/>
<use data-text="A" xlink:href="#font_1_6" transform="matrix(24.788586,0,0,-24.788586,283.76988,159.94289)"/>
<path transform="matrix(1.00006,0,0,-1.00006,2.2949982,208.17078)" stroke-width=".79701" stroke-linecap="butt" stroke-miterlimit="10" stroke-linejoin="miter" fill="none" stroke="#000000" d="M321.73646 56.69362 386.31803 93.19652"/>
<path transform="matrix(.8705622,-.4920595,-.4920595,-.8705622,388.63618,114.96869)" stroke-width=".6376" stroke-linecap="round" stroke-linejoin="round" fill="none" stroke="#000000" d="M-1.55415 2.0722C-1.42464 1.29512 0 .1295 .38852 0 0-.1295-1.42464-1.29512-1.55415-2.0722"/>
<use data-text="&#x03b7;" xlink:href="#font_1_4" transform="matrix(11.955917,0,0,-11.955917,354.83015,145.89205)"/>
<use data-text="A" xlink:href="#font_1_6" transform="matrix(11.955917,0,0,-11.955917,361.02333,145.89205)"/>
<path transform="matrix(1.00006,0,0,-1.00006,2.2949982,208.17078)" stroke-width=".79701" stroke-linecap="butt" stroke-miterlimit="10" stroke-linejoin="miter" fill="none" stroke="#000000" d="M389.76863 85.04042H446.46226"/>
<path transform="matrix(1.00006,0,0,-1.00006,2.2949982,208.17078)" stroke-width=".79701" stroke-linecap="butt" stroke-miterlimit="10" stroke-linejoin="miter" fill="none" stroke="#000000" d="M446.46226 85.04042V141.73404"/>
<path transform="matrix(1.00006,0,0,-1.00006,2.2949982,208.17078)" stroke-width=".79701" stroke-linecap="butt" stroke-miterlimit="10" stroke-linejoin="miter" fill="none" stroke="#000000" d="M446.46226 141.73404H389.76863"/>
<path transform="matrix(1.00006,0,0,-1.00006,2.2949982,208.17078)" stroke-width=".79701" stroke-linecap="butt" stroke-miterlimit="10" stroke-linejoin="miter" fill="none" stroke="#000000" d="M389.76863 141.73404V85.04042"/>
<use data-text="R" xlink:href="#font_1_9" transform="matrix(24.788586,0,0,-24.788586,411.0955,103.24648)"/>
</svg>
