<svg xmlns="http://www.w3.org/2000/svg" xmlns:xlink="http://www.w3.org/1999/xlink" xmlns:inkscape="http://www.inkscape.org/namespaces/inkscape" version="1.1" width="174" height="61" viewBox="0 0 174 61">
<defs>
<path id="font_1_3" d="M.6349945 .6950989C.6349945 .70410159 .6279907 .70410159 .6259918 .70410159 .621994 .70410159 .62098696 .7030945 .60899356 .6880951 .6029968 .6810913 .56199648 .62905886 .5609894 .62805178 .5279999 .6931 .46199037 .70410159 .41999818 .70410159 .29299928 .70410159 .17799378 .5880127 .17799378 .47491456 .17799378 .39985658 .22299195 .3558197 .27198792 .33880616 .2829895 .3347931 .34199525 .31878663 .37199403 .31178285 .4229889 .29776 .43598939 .2937622 .45700074 .27174378 .46099855 .2667389 .48098756 .24371338 .48098756 .19667053 .48098756 .10359192 .394989 .007507324 .29499818 .007507324 .21299744 .007507324 .12199402 .042541505 .12199402 .15463257 .12199402 .17366028 .12599182 .19767761 .1289978 .20768738 .1289978 .21069336 .12998963 .21569824 .12998963 .21769715 .12998963 .22169495 .12799073 .22669983 .11999512 .22669983 .11099243 .22669983 .10998535 .22470093 .10598755 .20768738L.054992677 .0025024415C.054992677 .0015106201 .050994874-.011489868 .050994874-.012496948 .050994874-.021484375 .05899048-.021484375 .06098938-.021484375 .06498718-.021484375 .06599426-.020492554 .07798767-.005493164L.12399292 .05455017C.147995 .01852417 .19999695-.021484375 .29299928-.021484375 .42199708-.021484375 .5399933 .10359192 .5399933 .22869873 .5399933 .2707367 .5299988 .30776979 .49198915 .34480287 .47099305 .36582948 .45298768 .37083436 .36099244 .39485169 .2939911 .4128723 .2849884 .41586305 .2669983 .43188478 .25 .44889833 .23699951 .47291566 .23699951 .50694277 .23699951 .5910187 .32199098 .6770935 .4169922 .6770935 .5149994 .6770935 .5609894 .6170502 .5609894 .5219574 .5609894 .49594117 .55599978 .46891786 .55599978 .4649048 .55599978 .4559021 .56399539 .4559021 .5669861 .4559021 .57598879 .4559021 .57699587 .45890809 .58099368 .47491456L.6349945 .6950989Z"/>
<path id="font_1_1" d="M.56599429 .58187869C.56599429 .6419678 .5149994 .7050781 .42399598 .7050781 .29499818 .7050781 .21299744 .5468292 .18699646 .44267274L.0289917-.18434143C.026992798-.19233704 .032989503-.19433594 .037994386-.19433594 .04499817-.19433594 .049987794-.19334412 .050994874-.18833924L.12098694 .09207153C.1309967 .03617859 .18598938-.009765625 .24499512-.009765625 .3880005-.009765625 .522995 .10205078 .522995 .25076295 .522995 .28868104 .5139923 .32661439 .49299623 .35855104 .48098756 .3775177 .46598817 .39149476 .44999696 .40351869 .5219879 .44166566 .56599429 .50276187 .56599429 .58187869M.3919983 .40452577C.37599183 .39848329 .3600006 .39648438 .34098817 .39648438 .32699586 .39648438 .31399537 .3954773 .29599 .40150453 .30599977 .40853883 .32099916 .41055299 .34199525 .41055299 .3600006 .41055299 .37799073 .40853883 .3919983 .40452577M.5139923 .5908966C.5139923 .5358124 .4869995 .45568849 .42199708 .41859437 .40299989 .42562867 .3769989 .43066407 .35499574 .43066407 .33399964 .43066407 .27398683 .43266297 .27398683 .40049745 .27398683 .3735199 .32899476 .37651063 .34599305 .37651063 .37199403 .37651063 .394989 .38250733 .4189911 .38949586 .45098878 .36354066 .46499635 .3296051 .46499635 .27970887 .46499635 .22181702 .44898988 .1749115 .42999269 .13198853 .39698792 .058135988 .31900025 .010223389 .25 .010223389 .1769867 .010223389 .13899231 .068115238 .13899231 .13598633 .13899231 .1449585 .13899231 .15794373 .14299011 .1729126L.20799256 .43566896C.24099732 .566864 .32499696 .68504336 .42199708 .68504336 .49398805 .68504336 .5139923 .634964 .5139923 .5908966Z"/>
<path id="font_1_2" d="M.36799623 .6086426C.3769989 .6436157 .3789978 .6536102 .45199586 .6536102 .47399903 .6536102 .48199464 .6536102 .48199464 .6726074 .48199464 .6826172 .47099305 .6826172 .46798707 .6826172 .44999696 .6826172 .42799378 .680603 .4099884 .680603H.2869873C.2669983 .680603 .24398804 .6826172 .22399903 .6826172 .21598816 .6826172 .20498657 .6826172 .20498657 .66360476 .20498657 .6536102 .21299744 .6536102 .23298645 .6536102 .29499818 .6536102 .29499818 .6456146 .29499818 .6346283 .29499818 .6276245 .29299928 .6216278 .29100038 .6126404L.1559906 .07395935C.14698792 .038986207 .14498902 .0289917 .07199097 .0289917 .049987794 .0289917 .040985109 .0289917 .040985109 .009994507 .040985109 0 .050994874 0 .055999757 0 .07398987 0 .09599304 .0019989014 .11399841 .0019989014H.23699951C.25698854 .0019989014 .2789917 0 .29899598 0 .30699159 0 .31900025 0 .31900025 .017990113 .31900025 .0289917 .31298829 .0289917 .29100038 .0289917 .22898865 .0289917 .22898865 .036987306 .22898865 .048980714 .22898865 .050979616 .22898865 .05596924 .23298645 .07196045L.36799623 .6086426Z"/>
</defs>
<path transform="matrix(1.00002,0,0,-1.00003,2.29467,58.693284)" stroke-width=".79701" stroke-linecap="butt" stroke-miterlimit="10" stroke-linejoin="miter" fill="none" stroke="#000000" d="M0 0H56.69362"/>
<path transform="matrix(1.00002,0,0,-1.00003,2.29467,58.693284)" stroke-width=".79701" stroke-linecap="butt" stroke-miterlimit="10" stroke-linejoin="miter" fill="none" stroke="#000000" d="M56.69362 0V56.69362"/>
<path transform="matrix(1.00002,0,0,-1.00003,2.29467,58.693284)" stroke-width=".79701" stroke-linecap="butt" stroke-miterlimit="10" stroke-linejoin="miter" fill="none" stroke="#000000" d="M56.69362 56.69362H0"/>
<path transform="matrix(1.00002,0,0,-1.00003,2.29467,58.693284)" stroke-width=".79701" stroke-linecap="butt" stroke-miterlimit="10" stroke-linejoin="miter" fill="none" stroke="#000000" d="M0 56.69362V0"/>
<use data-text="S" xlink:href="#font_1_3" transform="matrix(24.787596,0,0,-24.787844,22.457077,38.814687)"/>
<path transform="matrix(1.00002,0,0,-1.00003,2.29467,58.693284)" stroke-width=".79701" stroke-linecap="butt" stroke-miterlimit="10" stroke-linejoin="miter" fill="none" stroke="#000000" d="M59.52846 28.3468H109.845"/>
<path transform="matrix(1.00002,0,0,-1.00003,112.14187,30.345633)" stroke-width=".6376" stroke-linecap="round" stroke-linejoin="round" fill="none" stroke="#000000" d="M-1.55415 2.0722C-1.42464 1.29512 0 .1295 .38852 0 0-.1295-1.42464-1.29512-1.55415-2.0722"/>
<use data-text="&#x03b2;" xlink:href="#font_1_1" transform="matrix(14.346487,0,0,-14.346631,74.57512,19.758114)"/>
<use data-text="S" xlink:href="#font_1_3" transform="matrix(14.346487,0,0,-14.346631,83.29778,19.758114)"/>
<use data-text="I" xlink:href="#font_1_2" transform="matrix(14.346487,0,0,-14.346631,92.76646,19.758114)"/>
<path transform="matrix(1.00002,0,0,-1.00003,2.29467,58.693284)" stroke-width=".79701" stroke-linecap="butt" stroke-miterlimit="10" stroke-linejoin="miter" fill="none" stroke="#000000" d="M113.38724 0H170.08086"/>
<path transform="matrix(1.00002,0,0,-1.00003,2.29467,58.693284)" stroke-width=".79701" stroke-linecap="butt" stroke-miterlimit="10" stroke-linejoin="miter" fill="none" stroke="#000000" d="M170.08086 0V56.69362"/>
<path transform="matrix(1.00002,0,0,-1.00003,2.29467,58.693284)" stroke-width=".79701" stroke-linecap="butt" stroke-miterlimit="10" stroke-linejoin="miter" fill="none" stroke="#000000" d="M170.08086 56.69362H113.38724"/>
<path transform="matrix(1.00002,0,0,-1.00003,2.29467,58.693284)" stroke-width=".79701" stroke-linecap="butt" stroke-miterlimit="10" stroke-linejoin="miter" fill="none" stroke="#000000" d="M113.38724 56.69362V0"/>
<use data-text="I" xlink:href="#font_1_2" transform="matrix(24.787596,0,0,-24.787844,137.70438,38.814687)"/>
</svg>
